solid OpenSCAD_Model
  facet normal 0 0 -1
    outer loop
      vertex -49.9013 3.13953 0
      vertex -49.6057 6.26666 0
      vertex -50 0 0
    endloop
  endfacet
  facet normal 0 0 -1
    outer loop
      vertex -50 0 0
      vertex -49.6057 6.26666 0
      vertex -49.1144 9.36907 0
    endloop
  endfacet
  facet normal 0 0 -1
    outer loop
      vertex -50 0 0
      vertex -49.1144 9.36907 0
      vertex -48.4292 12.4345 0
    endloop
  endfacet
  facet normal 0 0 -1
    outer loop
      vertex -50 0 0
      vertex -48.4292 12.4345 0
      vertex -47.5528 15.4508 0
    endloop
  endfacet
  facet normal 0 0 -1
    outer loop
      vertex -50 0 0
      vertex -47.5528 15.4508 0
      vertex -46.4888 18.4062 0
    endloop
  endfacet
  facet normal 0 0 -1
    outer loop
      vertex -50 0 0
      vertex -46.4888 18.4062 0
      vertex -45.2414 21.289 0
    endloop
  endfacet
  facet normal 0 0 -1
    outer loop
      vertex -50 0 0
      vertex -45.2414 21.289 0
      vertex -43.8153 24.0877 0
    endloop
  endfacet
  facet normal 0 0 -1
    outer loop
      vertex -50 0 0
      vertex -43.8153 24.0877 0
      vertex -42.2164 26.7913 0
    endloop
  endfacet
  facet normal 0 0 -1
    outer loop
      vertex -50 0 0
      vertex -42.2164 26.7913 0
      vertex -40.4508 29.3893 0
    endloop
  endfacet
  facet normal 0 0 -1
    outer loop
      vertex -50 0 0
      vertex -40.4508 29.3893 0
      vertex -38.5257 31.8712 0
    endloop
  endfacet
  facet normal 0 0 -1
    outer loop
      vertex -50 0 0
      vertex -38.5257 31.8712 0
      vertex -36.4484 34.2274 0
    endloop
  endfacet
  facet normal 0 0 -1
    outer loop
      vertex -50 0 0
      vertex -36.4484 34.2274 0
      vertex -34.2274 36.4484 0
    endloop
  endfacet
  facet normal 0 0 -1
    outer loop
      vertex -50 0 0
      vertex -34.2274 36.4484 0
      vertex -31.8712 38.5257 0
    endloop
  endfacet
  facet normal 0 0 -1
    outer loop
      vertex -50 0 0
      vertex -31.8712 38.5257 0
      vertex -29.3893 40.4508 0
    endloop
  endfacet
  facet normal 0 0 -1
    outer loop
      vertex -50 0 0
      vertex -29.3893 40.4508 0
      vertex -26.7913 42.2164 0
    endloop
  endfacet
  facet normal 0 0 -1
    outer loop
      vertex -50 0 0
      vertex -26.7913 42.2164 0
      vertex -24.0877 43.8153 0
    endloop
  endfacet
  facet normal 0 0 -1
    outer loop
      vertex -50 0 0
      vertex -24.0877 43.8153 0
      vertex -21.289 45.2414 0
    endloop
  endfacet
  facet normal 0 0 -1
    outer loop
      vertex -50 0 0
      vertex -21.289 45.2414 0
      vertex -18.4062 46.4888 0
    endloop
  endfacet
  facet normal 0 0 -1
    outer loop
      vertex -50 0 0
      vertex -18.4062 46.4888 0
      vertex -15.4508 47.5528 0
    endloop
  endfacet
  facet normal 0 0 -1
    outer loop
      vertex -50 0 0
      vertex -15.4508 47.5528 0
      vertex -12.4345 48.4292 0
    endloop
  endfacet
  facet normal 0 0 -1
    outer loop
      vertex -50 0 0
      vertex -12.4345 48.4292 0
      vertex -9.36907 49.1144 0
    endloop
  endfacet
  facet normal 0 0 -1
    outer loop
      vertex -50 0 0
      vertex -9.36907 49.1144 0
      vertex -6.26666 49.6057 0
    endloop
  endfacet
  facet normal 0 0 -1
    outer loop
      vertex -50 0 0
      vertex -6.26666 49.6057 0
      vertex -3.13953 49.9013 0
    endloop
  endfacet
  facet normal 0 0 -1
    outer loop
      vertex -50 0 0
      vertex -3.13953 49.9013 0
      vertex 0 50 0
    endloop
  endfacet
  facet normal 0 0 -1
    outer loop
      vertex -50 0 0
      vertex 0 50 0
      vertex 3.13953 49.9013 0
    endloop
  endfacet
  facet normal 0 0 -1
    outer loop
      vertex -50 0 0
      vertex 3.13953 49.9013 0
      vertex 6.26666 49.6057 0
    endloop
  endfacet
  facet normal 0 0 -1
    outer loop
      vertex -50 0 0
      vertex 6.26666 49.6057 0
      vertex 9.36907 49.1144 0
    endloop
  endfacet
  facet normal 0 0 -1
    outer loop
      vertex -50 0 0
      vertex 9.36907 49.1144 0
      vertex 12.4345 48.4292 0
    endloop
  endfacet
  facet normal 0 0 -1
    outer loop
      vertex -50 0 0
      vertex 12.4345 48.4292 0
      vertex 15.4508 47.5528 0
    endloop
  endfacet
  facet normal 0 0 -1
    outer loop
      vertex -50 0 0
      vertex 15.4508 47.5528 0
      vertex 18.4062 46.4888 0
    endloop
  endfacet
  facet normal 0 0 -1
    outer loop
      vertex -50 0 0
      vertex 18.4062 46.4888 0
      vertex 21.289 45.2414 0
    endloop
  endfacet
  facet normal 0 0 -1
    outer loop
      vertex -50 0 0
      vertex 21.289 45.2414 0
      vertex 24.0877 43.8153 0
    endloop
  endfacet
  facet normal 0 0 -1
    outer loop
      vertex -50 0 0
      vertex 24.0877 43.8153 0
      vertex 26.7913 42.2164 0
    endloop
  endfacet
  facet normal 0 0 -1
    outer loop
      vertex -50 0 0
      vertex 26.7913 42.2164 0
      vertex 29.3893 40.4508 0
    endloop
  endfacet
  facet normal 0 0 -1
    outer loop
      vertex -50 0 0
      vertex 29.3893 40.4508 0
      vertex 31.8712 38.5257 0
    endloop
  endfacet
  facet normal 0 0 -1
    outer loop
      vertex -50 0 0
      vertex 31.8712 38.5257 0
      vertex 34.2274 36.4484 0
    endloop
  endfacet
  facet normal 0 0 -1
    outer loop
      vertex -50 0 0
      vertex 34.2274 36.4484 0
      vertex 36.4484 34.2274 0
    endloop
  endfacet
  facet normal 0 0 -1
    outer loop
      vertex -50 0 0
      vertex 36.4484 34.2274 0
      vertex 38.5257 31.8712 0
    endloop
  endfacet
  facet normal 0 0 -1
    outer loop
      vertex -50 0 0
      vertex 38.5257 31.8712 0
      vertex 40.4508 29.3893 0
    endloop
  endfacet
  facet normal 0 0 -1
    outer loop
      vertex -50 0 0
      vertex 40.4508 29.3893 0
      vertex 42.2164 26.7913 0
    endloop
  endfacet
  facet normal 0 0 -1
    outer loop
      vertex -50 0 0
      vertex 42.2164 26.7913 0
      vertex 43.8153 24.0877 0
    endloop
  endfacet
  facet normal 0 0 -1
    outer loop
      vertex -50 0 0
      vertex 43.8153 24.0877 0
      vertex 45.2414 21.289 0
    endloop
  endfacet
  facet normal 0 0 -1
    outer loop
      vertex -50 0 0
      vertex 45.2414 21.289 0
      vertex 46.4888 18.4062 0
    endloop
  endfacet
  facet normal 0 0 -1
    outer loop
      vertex -50 0 0
      vertex 46.4888 18.4062 0
      vertex 47.5528 15.4508 0
    endloop
  endfacet
  facet normal 0 0 -1
    outer loop
      vertex -50 0 0
      vertex 47.5528 15.4508 0
      vertex 48.4292 12.4345 0
    endloop
  endfacet
  facet normal 0 0 -1
    outer loop
      vertex -50 0 0
      vertex 48.4292 12.4345 0
      vertex 49.1144 9.36907 0
    endloop
  endfacet
  facet normal 0 0 -1
    outer loop
      vertex -50 0 0
      vertex 49.1144 9.36907 0
      vertex 49.6057 6.26666 0
    endloop
  endfacet
  facet normal 0 0 -1
    outer loop
      vertex -50 0 0
      vertex 49.6057 6.26666 0
      vertex 49.9013 3.13953 0
    endloop
  endfacet
  facet normal 0 0 -1
    outer loop
      vertex -50 0 0
      vertex 49.9013 3.13953 0
      vertex 50 0 0
    endloop
  endfacet
  facet normal 0 0 -1
    outer loop
      vertex -50 0 0
      vertex 50 0 0
      vertex 49.9013 -3.13953 0
    endloop
  endfacet
  facet normal 0 0 -1
    outer loop
      vertex -50 0 0
      vertex 49.9013 -3.13953 0
      vertex 49.6057 -6.26666 0
    endloop
  endfacet
  facet normal 0 0 -1
    outer loop
      vertex -50 0 0
      vertex 49.6057 -6.26666 0
      vertex 49.1144 -9.36907 0
    endloop
  endfacet
  facet normal 0 0 -1
    outer loop
      vertex -50 0 0
      vertex 49.1144 -9.36907 0
      vertex 48.4292 -12.4345 0
    endloop
  endfacet
  facet normal 0 0 -1
    outer loop
      vertex -50 0 0
      vertex 48.4292 -12.4345 0
      vertex 47.5528 -15.4508 0
    endloop
  endfacet
  facet normal 0 0 -1
    outer loop
      vertex -50 0 0
      vertex 47.5528 -15.4508 0
      vertex 46.4888 -18.4062 0
    endloop
  endfacet
  facet normal 0 0 -1
    outer loop
      vertex -50 0 0
      vertex 46.4888 -18.4062 0
      vertex 45.2414 -21.289 0
    endloop
  endfacet
  facet normal 0 0 -1
    outer loop
      vertex -50 0 0
      vertex 45.2414 -21.289 0
      vertex 43.8153 -24.0877 0
    endloop
  endfacet
  facet normal 0 0 -1
    outer loop
      vertex -50 0 0
      vertex 43.8153 -24.0877 0
      vertex 42.2164 -26.7913 0
    endloop
  endfacet
  facet normal 0 0 -1
    outer loop
      vertex -50 0 0
      vertex 42.2164 -26.7913 0
      vertex 40.4508 -29.3893 0
    endloop
  endfacet
  facet normal 0 0 -1
    outer loop
      vertex -50 0 0
      vertex 40.4508 -29.3893 0
      vertex 38.5257 -31.8712 0
    endloop
  endfacet
  facet normal 0 0 -1
    outer loop
      vertex -50 0 0
      vertex 38.5257 -31.8712 0
      vertex 36.4484 -34.2274 0
    endloop
  endfacet
  facet normal 0 0 -1
    outer loop
      vertex -50 0 0
      vertex 36.4484 -34.2274 0
      vertex 34.2274 -36.4484 0
    endloop
  endfacet
  facet normal 0 0 -1
    outer loop
      vertex -50 0 0
      vertex 34.2274 -36.4484 0
      vertex 31.8712 -38.5257 0
    endloop
  endfacet
  facet normal 0 0 -1
    outer loop
      vertex -50 0 0
      vertex 31.8712 -38.5257 0
      vertex 29.3893 -40.4508 0
    endloop
  endfacet
  facet normal 0 0 -1
    outer loop
      vertex -50 0 0
      vertex 29.3893 -40.4508 0
      vertex 26.7913 -42.2164 0
    endloop
  endfacet
  facet normal 0 0 -1
    outer loop
      vertex -50 0 0
      vertex 26.7913 -42.2164 0
      vertex 24.0877 -43.8153 0
    endloop
  endfacet
  facet normal 0 0 -1
    outer loop
      vertex -50 0 0
      vertex 24.0877 -43.8153 0
      vertex 21.289 -45.2414 0
    endloop
  endfacet
  facet normal 0 0 -1
    outer loop
      vertex -50 0 0
      vertex 21.289 -45.2414 0
      vertex 18.4062 -46.4888 0
    endloop
  endfacet
  facet normal 0 0 -1
    outer loop
      vertex -50 0 0
      vertex 18.4062 -46.4888 0
      vertex 15.4508 -47.5528 0
    endloop
  endfacet
  facet normal 0 0 -1
    outer loop
      vertex -50 0 0
      vertex 15.4508 -47.5528 0
      vertex 12.4345 -48.4292 0
    endloop
  endfacet
  facet normal 0 0 -1
    outer loop
      vertex -50 0 0
      vertex 12.4345 -48.4292 0
      vertex 9.36907 -49.1144 0
    endloop
  endfacet
  facet normal 0 0 -1
    outer loop
      vertex -50 0 0
      vertex 9.36907 -49.1144 0
      vertex 6.26666 -49.6057 0
    endloop
  endfacet
  facet normal 0 0 -1
    outer loop
      vertex -50 0 0
      vertex 6.26666 -49.6057 0
      vertex 3.13953 -49.9013 0
    endloop
  endfacet
  facet normal 0 0 -1
    outer loop
      vertex -50 0 0
      vertex 3.13953 -49.9013 0
      vertex 0 -50 0
    endloop
  endfacet
  facet normal 0 0 -1
    outer loop
      vertex -50 0 0
      vertex 0 -50 0
      vertex -3.13953 -49.9013 0
    endloop
  endfacet
  facet normal 0 0 -1
    outer loop
      vertex -50 0 0
      vertex -3.13953 -49.9013 0
      vertex -6.26666 -49.6057 0
    endloop
  endfacet
  facet normal 0 0 -1
    outer loop
      vertex -50 0 0
      vertex -6.26666 -49.6057 0
      vertex -9.36907 -49.1144 0
    endloop
  endfacet
  facet normal 0 0 -1
    outer loop
      vertex -50 0 0
      vertex -9.36907 -49.1144 0
      vertex -12.4345 -48.4292 0
    endloop
  endfacet
  facet normal 0 0 -1
    outer loop
      vertex -50 0 0
      vertex -12.4345 -48.4292 0
      vertex -15.4508 -47.5528 0
    endloop
  endfacet
  facet normal 0 0 -1
    outer loop
      vertex -50 0 0
      vertex -15.4508 -47.5528 0
      vertex -18.4062 -46.4888 0
    endloop
  endfacet
  facet normal 0 0 -1
    outer loop
      vertex -50 0 0
      vertex -18.4062 -46.4888 0
      vertex -21.289 -45.2414 0
    endloop
  endfacet
  facet normal 0 0 -1
    outer loop
      vertex -50 0 0
      vertex -21.289 -45.2414 0
      vertex -24.0877 -43.8153 0
    endloop
  endfacet
  facet normal 0 0 -1
    outer loop
      vertex -50 0 0
      vertex -24.0877 -43.8153 0
      vertex -26.7913 -42.2164 0
    endloop
  endfacet
  facet normal 0 0 -1
    outer loop
      vertex -50 0 0
      vertex -26.7913 -42.2164 0
      vertex -29.3893 -40.4508 0
    endloop
  endfacet
  facet normal 0 0 -1
    outer loop
      vertex -50 0 0
      vertex -29.3893 -40.4508 0
      vertex -31.8712 -38.5257 0
    endloop
  endfacet
  facet normal 0 0 -1
    outer loop
      vertex -50 0 0
      vertex -31.8712 -38.5257 0
      vertex -34.2274 -36.4484 0
    endloop
  endfacet
  facet normal 0 0 -1
    outer loop
      vertex -50 0 0
      vertex -34.2274 -36.4484 0
      vertex -36.4484 -34.2274 0
    endloop
  endfacet
  facet normal 0 0 -1
    outer loop
      vertex -50 0 0
      vertex -36.4484 -34.2274 0
      vertex -38.5257 -31.8712 0
    endloop
  endfacet
  facet normal 0 0 -1
    outer loop
      vertex -50 0 0
      vertex -38.5257 -31.8712 0
      vertex -40.4508 -29.3893 0
    endloop
  endfacet
  facet normal 0 0 -1
    outer loop
      vertex -50 0 0
      vertex -40.4508 -29.3893 0
      vertex -42.2164 -26.7913 0
    endloop
  endfacet
  facet normal 0 0 -1
    outer loop
      vertex -50 0 0
      vertex -42.2164 -26.7913 0
      vertex -43.8153 -24.0877 0
    endloop
  endfacet
  facet normal 0 0 -1
    outer loop
      vertex -50 0 0
      vertex -43.8153 -24.0877 0
      vertex -45.2414 -21.289 0
    endloop
  endfacet
  facet normal 0 0 -1
    outer loop
      vertex -50 0 0
      vertex -45.2414 -21.289 0
      vertex -46.4888 -18.4062 0
    endloop
  endfacet
  facet normal 0 0 -1
    outer loop
      vertex -50 0 0
      vertex -46.4888 -18.4062 0
      vertex -47.5528 -15.4508 0
    endloop
  endfacet
  facet normal 0 0 -1
    outer loop
      vertex -50 0 0
      vertex -47.5528 -15.4508 0
      vertex -48.4292 -12.4345 0
    endloop
  endfacet
  facet normal 0 0 -1
    outer loop
      vertex -50 0 0
      vertex -48.4292 -12.4345 0
      vertex -49.1144 -9.36907 0
    endloop
  endfacet
  facet normal 0 0 -1
    outer loop
      vertex -50 0 0
      vertex -49.1144 -9.36907 0
      vertex -49.6057 -6.26666 0
    endloop
  endfacet
  facet normal 0 0 -1
    outer loop
      vertex -50 0 0
      vertex -49.6057 -6.26666 0
      vertex -49.9013 -3.13953 0
    endloop
  endfacet
  facet normal 0.999507 0.0314109 0
    outer loop
      vertex 49.9013 3.13953 0
      vertex 49.9013 3.13953 75
      vertex 50 0 75
    endloop
  endfacet
  facet normal 0.999507 0.0314109 0
    outer loop
      vertex 50 0 0
      vertex 49.9013 3.13953 0
      vertex 50 0 75
    endloop
  endfacet
  facet normal 0.995562 0.0941082 0
    outer loop
      vertex 49.6057 6.26666 0
      vertex 49.6057 6.26666 75
      vertex 49.9013 3.13953 75
    endloop
  endfacet
  facet normal 0.995562 0.0941082 0
    outer loop
      vertex 49.9013 3.13953 0
      vertex 49.6057 6.26666 0
      vertex 49.9013 3.13953 75
    endloop
  endfacet
  facet normal -0.999507 0.0314109 0
    outer loop
      vertex -50 0 75
      vertex -49.9013 3.13953 75
      vertex -50 0 0
    endloop
  endfacet
  facet normal -0.999507 0.0314109 0
    outer loop
      vertex -50 0 0
      vertex -49.9013 3.13953 75
      vertex -49.9013 3.13953 0
    endloop
  endfacet
  facet normal -0.999507 -0.0314109 0
    outer loop
      vertex -49.9013 -3.13953 0
      vertex -49.9013 -3.13953 75
      vertex -50 0 0
    endloop
  endfacet
  facet normal -0.999507 -0.0314109 0
    outer loop
      vertex -50 0 0
      vertex -49.9013 -3.13953 75
      vertex -50 0 75
    endloop
  endfacet
  facet normal -0.995562 -0.0941082 0
    outer loop
      vertex -49.6057 -6.26666 0
      vertex -49.6057 -6.26666 75
      vertex -49.9013 -3.13953 0
    endloop
  endfacet
  facet normal -0.995562 -0.0941082 0
    outer loop
      vertex -49.9013 -3.13953 0
      vertex -49.6057 -6.26666 75
      vertex -49.9013 -3.13953 75
    endloop
  endfacet
  facet normal -0.987688 -0.156434 0
    outer loop
      vertex -49.1144 -9.36907 0
      vertex -49.1144 -9.36907 75
      vertex -49.6057 -6.26666 0
    endloop
  endfacet
  facet normal -0.987688 -0.156434 0
    outer loop
      vertex -49.6057 -6.26666 0
      vertex -49.1144 -9.36907 75
      vertex -49.6057 -6.26666 75
    endloop
  endfacet
  facet normal -0.975917 -0.218143 0
    outer loop
      vertex -48.4292 -12.4345 0
      vertex -48.4292 -12.4345 75
      vertex -49.1144 -9.36907 0
    endloop
  endfacet
  facet normal -0.975917 -0.218143 0
    outer loop
      vertex -49.1144 -9.36907 0
      vertex -48.4292 -12.4345 75
      vertex -49.1144 -9.36907 75
    endloop
  endfacet
  facet normal -0.960294 -0.278991 0
    outer loop
      vertex -47.5528 -15.4508 0
      vertex -47.5528 -15.4508 75
      vertex -48.4292 -12.4345 0
    endloop
  endfacet
  facet normal -0.960294 -0.278991 0
    outer loop
      vertex -48.4292 -12.4345 0
      vertex -47.5528 -15.4508 75
      vertex -48.4292 -12.4345 75
    endloop
  endfacet
  facet normal -0.940881 -0.338738 0
    outer loop
      vertex -46.4888 -18.4062 0
      vertex -46.4888 -18.4062 75
      vertex -47.5528 -15.4508 0
    endloop
  endfacet
  facet normal -0.940881 -0.338738 0
    outer loop
      vertex -47.5528 -15.4508 0
      vertex -46.4888 -18.4062 75
      vertex -47.5528 -15.4508 75
    endloop
  endfacet
  facet normal -0.917755 -0.397148 0
    outer loop
      vertex -45.2414 -21.289 0
      vertex -45.2414 -21.289 75
      vertex -46.4888 -18.4062 0
    endloop
  endfacet
  facet normal -0.917755 -0.397148 0
    outer loop
      vertex -46.4888 -18.4062 0
      vertex -45.2414 -21.289 75
      vertex -46.4888 -18.4062 75
    endloop
  endfacet
  facet normal -0.891006 -0.453991 0
    outer loop
      vertex -43.8153 -24.0877 0
      vertex -43.8153 -24.0877 75
      vertex -45.2414 -21.289 0
    endloop
  endfacet
  facet normal -0.891006 -0.453991 0
    outer loop
      vertex -45.2414 -21.289 0
      vertex -43.8153 -24.0877 75
      vertex -45.2414 -21.289 75
    endloop
  endfacet
  facet normal -0.860742 -0.509041 0
    outer loop
      vertex -42.2164 -26.7913 0
      vertex -42.2164 -26.7913 75
      vertex -43.8153 -24.0877 0
    endloop
  endfacet
  facet normal -0.860742 -0.509041 0
    outer loop
      vertex -43.8153 -24.0877 0
      vertex -42.2164 -26.7913 75
      vertex -43.8153 -24.0877 75
    endloop
  endfacet
  facet normal -0.827081 -0.562083 0
    outer loop
      vertex -40.4508 -29.3893 0
      vertex -40.4508 -29.3893 75
      vertex -42.2164 -26.7913 0
    endloop
  endfacet
  facet normal -0.827081 -0.562083 0
    outer loop
      vertex -42.2164 -26.7913 0
      vertex -40.4508 -29.3893 75
      vertex -42.2164 -26.7913 75
    endloop
  endfacet
  facet normal -0.790155 -0.612907 0
    outer loop
      vertex -38.5257 -31.8712 0
      vertex -38.5257 -31.8712 75
      vertex -40.4508 -29.3893 0
    endloop
  endfacet
  facet normal -0.790155 -0.612907 0
    outer loop
      vertex -40.4508 -29.3893 0
      vertex -38.5257 -31.8712 75
      vertex -40.4508 -29.3893 75
    endloop
  endfacet
  facet normal -0.750111 -0.661312 0
    outer loop
      vertex -36.4484 -34.2274 0
      vertex -36.4484 -34.2274 75
      vertex -38.5257 -31.8712 0
    endloop
  endfacet
  facet normal -0.750111 -0.661312 0
    outer loop
      vertex -38.5257 -31.8712 0
      vertex -36.4484 -34.2274 75
      vertex -38.5257 -31.8712 75
    endloop
  endfacet
  facet normal -0.707107 -0.707107 0
    outer loop
      vertex -36.4484 -34.2274 0
      vertex -34.2274 -36.4484 0
      vertex -34.2274 -36.4484 75
    endloop
  endfacet
  facet normal -0.707107 -0.707107 0
    outer loop
      vertex -36.4484 -34.2274 75
      vertex -36.4484 -34.2274 0
      vertex -34.2274 -36.4484 75
    endloop
  endfacet
  facet normal -0.661312 -0.750111 0
    outer loop
      vertex -34.2274 -36.4484 0
      vertex -31.8712 -38.5257 0
      vertex -31.8712 -38.5257 75
    endloop
  endfacet
  facet normal -0.661312 -0.750111 0
    outer loop
      vertex -34.2274 -36.4484 75
      vertex -34.2274 -36.4484 0
      vertex -31.8712 -38.5257 75
    endloop
  endfacet
  facet normal -0.612907 -0.790155 0
    outer loop
      vertex -31.8712 -38.5257 0
      vertex -29.3893 -40.4508 0
      vertex -29.3893 -40.4508 75
    endloop
  endfacet
  facet normal -0.612907 -0.790155 0
    outer loop
      vertex -31.8712 -38.5257 75
      vertex -31.8712 -38.5257 0
      vertex -29.3893 -40.4508 75
    endloop
  endfacet
  facet normal -0.562083 -0.827081 0
    outer loop
      vertex -29.3893 -40.4508 0
      vertex -26.7913 -42.2164 0
      vertex -26.7913 -42.2164 75
    endloop
  endfacet
  facet normal -0.562083 -0.827081 0
    outer loop
      vertex -29.3893 -40.4508 75
      vertex -29.3893 -40.4508 0
      vertex -26.7913 -42.2164 75
    endloop
  endfacet
  facet normal -0.509041 -0.860742 0
    outer loop
      vertex -26.7913 -42.2164 0
      vertex -24.0877 -43.8153 0
      vertex -24.0877 -43.8153 75
    endloop
  endfacet
  facet normal -0.509041 -0.860742 0
    outer loop
      vertex -26.7913 -42.2164 75
      vertex -26.7913 -42.2164 0
      vertex -24.0877 -43.8153 75
    endloop
  endfacet
  facet normal -0.453991 -0.891006 0
    outer loop
      vertex -24.0877 -43.8153 0
      vertex -21.289 -45.2414 0
      vertex -21.289 -45.2414 75
    endloop
  endfacet
  facet normal -0.453991 -0.891006 0
    outer loop
      vertex -24.0877 -43.8153 75
      vertex -24.0877 -43.8153 0
      vertex -21.289 -45.2414 75
    endloop
  endfacet
  facet normal -0.397148 -0.917755 0
    outer loop
      vertex -21.289 -45.2414 0
      vertex -18.4062 -46.4888 0
      vertex -18.4062 -46.4888 75
    endloop
  endfacet
  facet normal -0.397148 -0.917755 0
    outer loop
      vertex -21.289 -45.2414 75
      vertex -21.289 -45.2414 0
      vertex -18.4062 -46.4888 75
    endloop
  endfacet
  facet normal -0.338738 -0.940881 0
    outer loop
      vertex -18.4062 -46.4888 0
      vertex -15.4508 -47.5528 0
      vertex -15.4508 -47.5528 75
    endloop
  endfacet
  facet normal -0.338738 -0.940881 0
    outer loop
      vertex -18.4062 -46.4888 75
      vertex -18.4062 -46.4888 0
      vertex -15.4508 -47.5528 75
    endloop
  endfacet
  facet normal -0.278991 -0.960294 0
    outer loop
      vertex -15.4508 -47.5528 0
      vertex -12.4345 -48.4292 0
      vertex -12.4345 -48.4292 75
    endloop
  endfacet
  facet normal -0.278991 -0.960294 0
    outer loop
      vertex -15.4508 -47.5528 75
      vertex -15.4508 -47.5528 0
      vertex -12.4345 -48.4292 75
    endloop
  endfacet
  facet normal -0.218143 -0.975917 0
    outer loop
      vertex -12.4345 -48.4292 0
      vertex -9.36907 -49.1144 0
      vertex -9.36907 -49.1144 75
    endloop
  endfacet
  facet normal -0.218143 -0.975917 0
    outer loop
      vertex -12.4345 -48.4292 75
      vertex -12.4345 -48.4292 0
      vertex -9.36907 -49.1144 75
    endloop
  endfacet
  facet normal -0.156434 -0.987688 0
    outer loop
      vertex -9.36907 -49.1144 0
      vertex -6.26666 -49.6057 0
      vertex -6.26666 -49.6057 75
    endloop
  endfacet
  facet normal -0.156434 -0.987688 0
    outer loop
      vertex -9.36907 -49.1144 75
      vertex -9.36907 -49.1144 0
      vertex -6.26666 -49.6057 75
    endloop
  endfacet
  facet normal -0.0941082 -0.995562 0
    outer loop
      vertex -6.26666 -49.6057 0
      vertex -3.13953 -49.9013 0
      vertex -3.13953 -49.9013 75
    endloop
  endfacet
  facet normal -0.0941082 -0.995562 0
    outer loop
      vertex -6.26666 -49.6057 75
      vertex -6.26666 -49.6057 0
      vertex -3.13953 -49.9013 75
    endloop
  endfacet
  facet normal -0.0314109 -0.999507 0
    outer loop
      vertex -3.13953 -49.9013 0
      vertex 0 -50 0
      vertex 0 -50 75
    endloop
  endfacet
  facet normal -0.0314109 -0.999507 0
    outer loop
      vertex -3.13953 -49.9013 75
      vertex -3.13953 -49.9013 0
      vertex 0 -50 75
    endloop
  endfacet
  facet normal 0.0314109 -0.999507 0
    outer loop
      vertex 0 -50 0
      vertex 3.13953 -49.9013 0
      vertex 3.13953 -49.9013 75
    endloop
  endfacet
  facet normal 0.0314109 -0.999507 0
    outer loop
      vertex 0 -50 75
      vertex 0 -50 0
      vertex 3.13953 -49.9013 75
    endloop
  endfacet
  facet normal 0.0941082 -0.995562 0
    outer loop
      vertex 3.13953 -49.9013 0
      vertex 6.26666 -49.6057 0
      vertex 6.26666 -49.6057 75
    endloop
  endfacet
  facet normal 0.0941082 -0.995562 0
    outer loop
      vertex 3.13953 -49.9013 75
      vertex 3.13953 -49.9013 0
      vertex 6.26666 -49.6057 75
    endloop
  endfacet
  facet normal 0.156434 -0.987688 0
    outer loop
      vertex 6.26666 -49.6057 0
      vertex 9.36907 -49.1144 0
      vertex 9.36907 -49.1144 75
    endloop
  endfacet
  facet normal 0.156434 -0.987688 0
    outer loop
      vertex 6.26666 -49.6057 75
      vertex 6.26666 -49.6057 0
      vertex 9.36907 -49.1144 75
    endloop
  endfacet
  facet normal 0.218143 -0.975917 0
    outer loop
      vertex 9.36907 -49.1144 0
      vertex 12.4345 -48.4292 0
      vertex 12.4345 -48.4292 75
    endloop
  endfacet
  facet normal 0.218143 -0.975917 0
    outer loop
      vertex 9.36907 -49.1144 75
      vertex 9.36907 -49.1144 0
      vertex 12.4345 -48.4292 75
    endloop
  endfacet
  facet normal 0.278991 -0.960294 0
    outer loop
      vertex 12.4345 -48.4292 0
      vertex 15.4508 -47.5528 0
      vertex 15.4508 -47.5528 75
    endloop
  endfacet
  facet normal 0.278991 -0.960294 0
    outer loop
      vertex 12.4345 -48.4292 75
      vertex 12.4345 -48.4292 0
      vertex 15.4508 -47.5528 75
    endloop
  endfacet
  facet normal 0.338738 -0.940881 0
    outer loop
      vertex 15.4508 -47.5528 0
      vertex 18.4062 -46.4888 0
      vertex 18.4062 -46.4888 75
    endloop
  endfacet
  facet normal 0.338738 -0.940881 0
    outer loop
      vertex 15.4508 -47.5528 75
      vertex 15.4508 -47.5528 0
      vertex 18.4062 -46.4888 75
    endloop
  endfacet
  facet normal 0.397148 -0.917755 0
    outer loop
      vertex 18.4062 -46.4888 0
      vertex 21.289 -45.2414 0
      vertex 21.289 -45.2414 75
    endloop
  endfacet
  facet normal 0.397148 -0.917755 0
    outer loop
      vertex 18.4062 -46.4888 75
      vertex 18.4062 -46.4888 0
      vertex 21.289 -45.2414 75
    endloop
  endfacet
  facet normal 0.453991 -0.891006 0
    outer loop
      vertex 21.289 -45.2414 0
      vertex 24.0877 -43.8153 0
      vertex 24.0877 -43.8153 75
    endloop
  endfacet
  facet normal 0.453991 -0.891006 0
    outer loop
      vertex 21.289 -45.2414 75
      vertex 21.289 -45.2414 0
      vertex 24.0877 -43.8153 75
    endloop
  endfacet
  facet normal 0.509041 -0.860742 0
    outer loop
      vertex 24.0877 -43.8153 0
      vertex 26.7913 -42.2164 0
      vertex 26.7913 -42.2164 75
    endloop
  endfacet
  facet normal 0.509041 -0.860742 0
    outer loop
      vertex 24.0877 -43.8153 75
      vertex 24.0877 -43.8153 0
      vertex 26.7913 -42.2164 75
    endloop
  endfacet
  facet normal 0.562083 -0.827081 0
    outer loop
      vertex 26.7913 -42.2164 0
      vertex 29.3893 -40.4508 0
      vertex 29.3893 -40.4508 75
    endloop
  endfacet
  facet normal 0.562083 -0.827081 0
    outer loop
      vertex 26.7913 -42.2164 75
      vertex 26.7913 -42.2164 0
      vertex 29.3893 -40.4508 75
    endloop
  endfacet
  facet normal 0.612907 -0.790155 0
    outer loop
      vertex 29.3893 -40.4508 0
      vertex 31.8712 -38.5257 0
      vertex 31.8712 -38.5257 75
    endloop
  endfacet
  facet normal 0.612907 -0.790155 0
    outer loop
      vertex 29.3893 -40.4508 75
      vertex 29.3893 -40.4508 0
      vertex 31.8712 -38.5257 75
    endloop
  endfacet
  facet normal 0.661312 -0.750111 0
    outer loop
      vertex 31.8712 -38.5257 0
      vertex 34.2274 -36.4484 0
      vertex 34.2274 -36.4484 75
    endloop
  endfacet
  facet normal 0.661312 -0.750111 0
    outer loop
      vertex 31.8712 -38.5257 75
      vertex 31.8712 -38.5257 0
      vertex 34.2274 -36.4484 75
    endloop
  endfacet
  facet normal 0.707107 -0.707107 0
    outer loop
      vertex 34.2274 -36.4484 0
      vertex 36.4484 -34.2274 0
      vertex 36.4484 -34.2274 75
    endloop
  endfacet
  facet normal 0.707107 -0.707107 0
    outer loop
      vertex 34.2274 -36.4484 75
      vertex 34.2274 -36.4484 0
      vertex 36.4484 -34.2274 75
    endloop
  endfacet
  facet normal 0.750111 -0.661312 0
    outer loop
      vertex 36.4484 -34.2274 0
      vertex 38.5257 -31.8712 0
      vertex 38.5257 -31.8712 75
    endloop
  endfacet
  facet normal 0.750111 -0.661312 0
    outer loop
      vertex 36.4484 -34.2274 75
      vertex 36.4484 -34.2274 0
      vertex 38.5257 -31.8712 75
    endloop
  endfacet
  facet normal 0.790155 -0.612907 0
    outer loop
      vertex 38.5257 -31.8712 0
      vertex 40.4508 -29.3893 0
      vertex 40.4508 -29.3893 75
    endloop
  endfacet
  facet normal 0.790155 -0.612907 0
    outer loop
      vertex 38.5257 -31.8712 75
      vertex 38.5257 -31.8712 0
      vertex 40.4508 -29.3893 75
    endloop
  endfacet
  facet normal 0.827081 -0.562083 0
    outer loop
      vertex 40.4508 -29.3893 0
      vertex 42.2164 -26.7913 0
      vertex 42.2164 -26.7913 75
    endloop
  endfacet
  facet normal 0.827081 -0.562083 0
    outer loop
      vertex 40.4508 -29.3893 75
      vertex 40.4508 -29.3893 0
      vertex 42.2164 -26.7913 75
    endloop
  endfacet
  facet normal 0.860742 -0.509041 0
    outer loop
      vertex 42.2164 -26.7913 0
      vertex 43.8153 -24.0877 0
      vertex 43.8153 -24.0877 75
    endloop
  endfacet
  facet normal 0.860742 -0.509041 0
    outer loop
      vertex 42.2164 -26.7913 75
      vertex 42.2164 -26.7913 0
      vertex 43.8153 -24.0877 75
    endloop
  endfacet
  facet normal 0.891006 -0.453991 0
    outer loop
      vertex 43.8153 -24.0877 0
      vertex 45.2414 -21.289 0
      vertex 45.2414 -21.289 75
    endloop
  endfacet
  facet normal 0.891006 -0.453991 0
    outer loop
      vertex 43.8153 -24.0877 75
      vertex 43.8153 -24.0877 0
      vertex 45.2414 -21.289 75
    endloop
  endfacet
  facet normal 0.917755 -0.397148 0
    outer loop
      vertex 45.2414 -21.289 0
      vertex 46.4888 -18.4062 0
      vertex 46.4888 -18.4062 75
    endloop
  endfacet
  facet normal 0.917755 -0.397148 0
    outer loop
      vertex 45.2414 -21.289 75
      vertex 45.2414 -21.289 0
      vertex 46.4888 -18.4062 75
    endloop
  endfacet
  facet normal 0.940881 -0.338738 0
    outer loop
      vertex 46.4888 -18.4062 0
      vertex 47.5528 -15.4508 0
      vertex 47.5528 -15.4508 75
    endloop
  endfacet
  facet normal 0.940881 -0.338738 0
    outer loop
      vertex 46.4888 -18.4062 75
      vertex 46.4888 -18.4062 0
      vertex 47.5528 -15.4508 75
    endloop
  endfacet
  facet normal 0.960294 -0.278991 0
    outer loop
      vertex 47.5528 -15.4508 0
      vertex 48.4292 -12.4345 0
      vertex 48.4292 -12.4345 75
    endloop
  endfacet
  facet normal 0.960294 -0.278991 0
    outer loop
      vertex 47.5528 -15.4508 75
      vertex 47.5528 -15.4508 0
      vertex 48.4292 -12.4345 75
    endloop
  endfacet
  facet normal 0.975917 -0.218143 0
    outer loop
      vertex 48.4292 -12.4345 0
      vertex 49.1144 -9.36907 0
      vertex 49.1144 -9.36907 75
    endloop
  endfacet
  facet normal 0.975917 -0.218143 0
    outer loop
      vertex 48.4292 -12.4345 75
      vertex 48.4292 -12.4345 0
      vertex 49.1144 -9.36907 75
    endloop
  endfacet
  facet normal 0.987688 -0.156434 0
    outer loop
      vertex 49.1144 -9.36907 0
      vertex 49.6057 -6.26666 0
      vertex 49.6057 -6.26666 75
    endloop
  endfacet
  facet normal 0.987688 -0.156434 0
    outer loop
      vertex 49.1144 -9.36907 75
      vertex 49.1144 -9.36907 0
      vertex 49.6057 -6.26666 75
    endloop
  endfacet
  facet normal 0.995562 -0.0941082 0
    outer loop
      vertex 49.6057 -6.26666 0
      vertex 49.9013 -3.13953 0
      vertex 49.9013 -3.13953 75
    endloop
  endfacet
  facet normal 0.995562 -0.0941082 0
    outer loop
      vertex 49.6057 -6.26666 75
      vertex 49.6057 -6.26666 0
      vertex 49.9013 -3.13953 75
    endloop
  endfacet
  facet normal 0.999507 -0.0314109 0
    outer loop
      vertex 49.9013 -3.13953 0
      vertex 50 0 0
      vertex 50 0 75
    endloop
  endfacet
  facet normal 0.999507 -0.0314109 0
    outer loop
      vertex 49.9013 -3.13953 75
      vertex 49.9013 -3.13953 0
      vertex 50 0 75
    endloop
  endfacet
  facet normal 0.987688 0.156434 0
    outer loop
      vertex 49.1144 9.36907 0
      vertex 49.1144 9.36907 75
      vertex 49.6057 6.26666 75
    endloop
  endfacet
  facet normal 0.987688 0.156434 0
    outer loop
      vertex 49.6057 6.26666 0
      vertex 49.1144 9.36907 0
      vertex 49.6057 6.26666 75
    endloop
  endfacet
  facet normal 0.975917 0.218143 0
    outer loop
      vertex 48.4292 12.4345 0
      vertex 48.4292 12.4345 75
      vertex 49.1144 9.36907 75
    endloop
  endfacet
  facet normal 0.975917 0.218143 0
    outer loop
      vertex 49.1144 9.36907 0
      vertex 48.4292 12.4345 0
      vertex 49.1144 9.36907 75
    endloop
  endfacet
  facet normal 0.960294 0.278991 0
    outer loop
      vertex 47.5528 15.4508 0
      vertex 47.5528 15.4508 75
      vertex 48.4292 12.4345 75
    endloop
  endfacet
  facet normal 0.960294 0.278991 0
    outer loop
      vertex 48.4292 12.4345 0
      vertex 47.5528 15.4508 0
      vertex 48.4292 12.4345 75
    endloop
  endfacet
  facet normal 0.940881 0.338738 0
    outer loop
      vertex 46.4888 18.4062 0
      vertex 46.4888 18.4062 75
      vertex 47.5528 15.4508 75
    endloop
  endfacet
  facet normal 0.940881 0.338738 0
    outer loop
      vertex 47.5528 15.4508 0
      vertex 46.4888 18.4062 0
      vertex 47.5528 15.4508 75
    endloop
  endfacet
  facet normal 0.917755 0.397148 0
    outer loop
      vertex 45.2414 21.289 0
      vertex 45.2414 21.289 75
      vertex 46.4888 18.4062 75
    endloop
  endfacet
  facet normal 0.917755 0.397148 0
    outer loop
      vertex 46.4888 18.4062 0
      vertex 45.2414 21.289 0
      vertex 46.4888 18.4062 75
    endloop
  endfacet
  facet normal 0.891006 0.453991 0
    outer loop
      vertex 43.8153 24.0877 0
      vertex 43.8153 24.0877 75
      vertex 45.2414 21.289 75
    endloop
  endfacet
  facet normal 0.891006 0.453991 0
    outer loop
      vertex 45.2414 21.289 0
      vertex 43.8153 24.0877 0
      vertex 45.2414 21.289 75
    endloop
  endfacet
  facet normal 0.860742 0.509041 0
    outer loop
      vertex 42.2164 26.7913 0
      vertex 42.2164 26.7913 75
      vertex 43.8153 24.0877 75
    endloop
  endfacet
  facet normal 0.860742 0.509041 0
    outer loop
      vertex 43.8153 24.0877 0
      vertex 42.2164 26.7913 0
      vertex 43.8153 24.0877 75
    endloop
  endfacet
  facet normal 0.827081 0.562083 0
    outer loop
      vertex 40.4508 29.3893 0
      vertex 40.4508 29.3893 75
      vertex 42.2164 26.7913 75
    endloop
  endfacet
  facet normal 0.827081 0.562083 0
    outer loop
      vertex 42.2164 26.7913 0
      vertex 40.4508 29.3893 0
      vertex 42.2164 26.7913 75
    endloop
  endfacet
  facet normal 0.790155 0.612907 0
    outer loop
      vertex 38.5257 31.8712 0
      vertex 38.5257 31.8712 75
      vertex 40.4508 29.3893 75
    endloop
  endfacet
  facet normal 0.790155 0.612907 0
    outer loop
      vertex 40.4508 29.3893 0
      vertex 38.5257 31.8712 0
      vertex 40.4508 29.3893 75
    endloop
  endfacet
  facet normal 0.750111 0.661312 0
    outer loop
      vertex 36.4484 34.2274 0
      vertex 36.4484 34.2274 75
      vertex 38.5257 31.8712 75
    endloop
  endfacet
  facet normal 0.750111 0.661312 0
    outer loop
      vertex 38.5257 31.8712 0
      vertex 36.4484 34.2274 0
      vertex 38.5257 31.8712 75
    endloop
  endfacet
  facet normal 0.707107 0.707107 0
    outer loop
      vertex 34.2274 36.4484 75
      vertex 36.4484 34.2274 75
      vertex 34.2274 36.4484 0
    endloop
  endfacet
  facet normal 0.707107 0.707107 0
    outer loop
      vertex 34.2274 36.4484 0
      vertex 36.4484 34.2274 75
      vertex 36.4484 34.2274 0
    endloop
  endfacet
  facet normal 0.661312 0.750111 0
    outer loop
      vertex 31.8712 38.5257 75
      vertex 34.2274 36.4484 75
      vertex 31.8712 38.5257 0
    endloop
  endfacet
  facet normal 0.661312 0.750111 0
    outer loop
      vertex 31.8712 38.5257 0
      vertex 34.2274 36.4484 75
      vertex 34.2274 36.4484 0
    endloop
  endfacet
  facet normal 0.612907 0.790155 0
    outer loop
      vertex 29.3893 40.4508 75
      vertex 31.8712 38.5257 75
      vertex 29.3893 40.4508 0
    endloop
  endfacet
  facet normal 0.612907 0.790155 0
    outer loop
      vertex 29.3893 40.4508 0
      vertex 31.8712 38.5257 75
      vertex 31.8712 38.5257 0
    endloop
  endfacet
  facet normal 0.562083 0.827081 0
    outer loop
      vertex 26.7913 42.2164 75
      vertex 29.3893 40.4508 75
      vertex 26.7913 42.2164 0
    endloop
  endfacet
  facet normal 0.562083 0.827081 0
    outer loop
      vertex 26.7913 42.2164 0
      vertex 29.3893 40.4508 75
      vertex 29.3893 40.4508 0
    endloop
  endfacet
  facet normal 0.509041 0.860742 0
    outer loop
      vertex 24.0877 43.8153 75
      vertex 26.7913 42.2164 75
      vertex 24.0877 43.8153 0
    endloop
  endfacet
  facet normal 0.509041 0.860742 0
    outer loop
      vertex 24.0877 43.8153 0
      vertex 26.7913 42.2164 75
      vertex 26.7913 42.2164 0
    endloop
  endfacet
  facet normal 0.453991 0.891006 0
    outer loop
      vertex 21.289 45.2414 75
      vertex 24.0877 43.8153 75
      vertex 21.289 45.2414 0
    endloop
  endfacet
  facet normal 0.453991 0.891006 0
    outer loop
      vertex 21.289 45.2414 0
      vertex 24.0877 43.8153 75
      vertex 24.0877 43.8153 0
    endloop
  endfacet
  facet normal 0.397148 0.917755 0
    outer loop
      vertex 18.4062 46.4888 75
      vertex 21.289 45.2414 75
      vertex 18.4062 46.4888 0
    endloop
  endfacet
  facet normal 0.397148 0.917755 0
    outer loop
      vertex 18.4062 46.4888 0
      vertex 21.289 45.2414 75
      vertex 21.289 45.2414 0
    endloop
  endfacet
  facet normal 0.338738 0.940881 0
    outer loop
      vertex 15.4508 47.5528 75
      vertex 18.4062 46.4888 75
      vertex 15.4508 47.5528 0
    endloop
  endfacet
  facet normal 0.338738 0.940881 0
    outer loop
      vertex 15.4508 47.5528 0
      vertex 18.4062 46.4888 75
      vertex 18.4062 46.4888 0
    endloop
  endfacet
  facet normal 0.278991 0.960294 0
    outer loop
      vertex 12.4345 48.4292 75
      vertex 15.4508 47.5528 75
      vertex 12.4345 48.4292 0
    endloop
  endfacet
  facet normal 0.278991 0.960294 0
    outer loop
      vertex 12.4345 48.4292 0
      vertex 15.4508 47.5528 75
      vertex 15.4508 47.5528 0
    endloop
  endfacet
  facet normal 0.218143 0.975917 0
    outer loop
      vertex 9.36907 49.1144 75
      vertex 12.4345 48.4292 75
      vertex 9.36907 49.1144 0
    endloop
  endfacet
  facet normal 0.218143 0.975917 0
    outer loop
      vertex 9.36907 49.1144 0
      vertex 12.4345 48.4292 75
      vertex 12.4345 48.4292 0
    endloop
  endfacet
  facet normal 0.156434 0.987688 0
    outer loop
      vertex 6.26666 49.6057 75
      vertex 9.36907 49.1144 75
      vertex 6.26666 49.6057 0
    endloop
  endfacet
  facet normal 0.156434 0.987688 0
    outer loop
      vertex 6.26666 49.6057 0
      vertex 9.36907 49.1144 75
      vertex 9.36907 49.1144 0
    endloop
  endfacet
  facet normal 0.0941082 0.995562 0
    outer loop
      vertex 3.13953 49.9013 75
      vertex 6.26666 49.6057 75
      vertex 3.13953 49.9013 0
    endloop
  endfacet
  facet normal 0.0941082 0.995562 0
    outer loop
      vertex 3.13953 49.9013 0
      vertex 6.26666 49.6057 75
      vertex 6.26666 49.6057 0
    endloop
  endfacet
  facet normal 0.0314109 0.999507 0
    outer loop
      vertex 0 50 75
      vertex 3.13953 49.9013 75
      vertex 0 50 0
    endloop
  endfacet
  facet normal 0.0314109 0.999507 0
    outer loop
      vertex 0 50 0
      vertex 3.13953 49.9013 75
      vertex 3.13953 49.9013 0
    endloop
  endfacet
  facet normal -0.0314109 0.999507 0
    outer loop
      vertex -3.13953 49.9013 75
      vertex 0 50 75
      vertex -3.13953 49.9013 0
    endloop
  endfacet
  facet normal -0.0314109 0.999507 0
    outer loop
      vertex -3.13953 49.9013 0
      vertex 0 50 75
      vertex 0 50 0
    endloop
  endfacet
  facet normal -0.0941082 0.995562 0
    outer loop
      vertex -6.26666 49.6057 75
      vertex -3.13953 49.9013 75
      vertex -6.26666 49.6057 0
    endloop
  endfacet
  facet normal -0.0941082 0.995562 0
    outer loop
      vertex -6.26666 49.6057 0
      vertex -3.13953 49.9013 75
      vertex -3.13953 49.9013 0
    endloop
  endfacet
  facet normal -0.156434 0.987688 0
    outer loop
      vertex -9.36907 49.1144 75
      vertex -6.26666 49.6057 75
      vertex -9.36907 49.1144 0
    endloop
  endfacet
  facet normal -0.156434 0.987688 0
    outer loop
      vertex -9.36907 49.1144 0
      vertex -6.26666 49.6057 75
      vertex -6.26666 49.6057 0
    endloop
  endfacet
  facet normal -0.218143 0.975917 0
    outer loop
      vertex -12.4345 48.4292 75
      vertex -9.36907 49.1144 75
      vertex -12.4345 48.4292 0
    endloop
  endfacet
  facet normal -0.218143 0.975917 0
    outer loop
      vertex -12.4345 48.4292 0
      vertex -9.36907 49.1144 75
      vertex -9.36907 49.1144 0
    endloop
  endfacet
  facet normal -0.278991 0.960294 0
    outer loop
      vertex -15.4508 47.5528 75
      vertex -12.4345 48.4292 75
      vertex -15.4508 47.5528 0
    endloop
  endfacet
  facet normal -0.278991 0.960294 0
    outer loop
      vertex -15.4508 47.5528 0
      vertex -12.4345 48.4292 75
      vertex -12.4345 48.4292 0
    endloop
  endfacet
  facet normal -0.338738 0.940881 0
    outer loop
      vertex -18.4062 46.4888 75
      vertex -15.4508 47.5528 75
      vertex -18.4062 46.4888 0
    endloop
  endfacet
  facet normal -0.338738 0.940881 0
    outer loop
      vertex -18.4062 46.4888 0
      vertex -15.4508 47.5528 75
      vertex -15.4508 47.5528 0
    endloop
  endfacet
  facet normal -0.397148 0.917755 0
    outer loop
      vertex -21.289 45.2414 75
      vertex -18.4062 46.4888 75
      vertex -21.289 45.2414 0
    endloop
  endfacet
  facet normal -0.397148 0.917755 0
    outer loop
      vertex -21.289 45.2414 0
      vertex -18.4062 46.4888 75
      vertex -18.4062 46.4888 0
    endloop
  endfacet
  facet normal -0.453991 0.891006 0
    outer loop
      vertex -24.0877 43.8153 75
      vertex -21.289 45.2414 75
      vertex -24.0877 43.8153 0
    endloop
  endfacet
  facet normal -0.453991 0.891006 0
    outer loop
      vertex -24.0877 43.8153 0
      vertex -21.289 45.2414 75
      vertex -21.289 45.2414 0
    endloop
  endfacet
  facet normal -0.509041 0.860742 0
    outer loop
      vertex -26.7913 42.2164 75
      vertex -24.0877 43.8153 75
      vertex -26.7913 42.2164 0
    endloop
  endfacet
  facet normal -0.509041 0.860742 0
    outer loop
      vertex -26.7913 42.2164 0
      vertex -24.0877 43.8153 75
      vertex -24.0877 43.8153 0
    endloop
  endfacet
  facet normal -0.562083 0.827081 0
    outer loop
      vertex -29.3893 40.4508 75
      vertex -26.7913 42.2164 75
      vertex -29.3893 40.4508 0
    endloop
  endfacet
  facet normal -0.562083 0.827081 0
    outer loop
      vertex -29.3893 40.4508 0
      vertex -26.7913 42.2164 75
      vertex -26.7913 42.2164 0
    endloop
  endfacet
  facet normal -0.612907 0.790155 0
    outer loop
      vertex -31.8712 38.5257 75
      vertex -29.3893 40.4508 75
      vertex -31.8712 38.5257 0
    endloop
  endfacet
  facet normal -0.612907 0.790155 0
    outer loop
      vertex -31.8712 38.5257 0
      vertex -29.3893 40.4508 75
      vertex -29.3893 40.4508 0
    endloop
  endfacet
  facet normal -0.661312 0.750111 0
    outer loop
      vertex -34.2274 36.4484 75
      vertex -31.8712 38.5257 75
      vertex -34.2274 36.4484 0
    endloop
  endfacet
  facet normal -0.661312 0.750111 0
    outer loop
      vertex -34.2274 36.4484 0
      vertex -31.8712 38.5257 75
      vertex -31.8712 38.5257 0
    endloop
  endfacet
  facet normal -0.707107 0.707107 0
    outer loop
      vertex -36.4484 34.2274 75
      vertex -34.2274 36.4484 75
      vertex -36.4484 34.2274 0
    endloop
  endfacet
  facet normal -0.707107 0.707107 0
    outer loop
      vertex -36.4484 34.2274 0
      vertex -34.2274 36.4484 75
      vertex -34.2274 36.4484 0
    endloop
  endfacet
  facet normal -0.750111 0.661312 0
    outer loop
      vertex -38.5257 31.8712 75
      vertex -36.4484 34.2274 75
      vertex -38.5257 31.8712 0
    endloop
  endfacet
  facet normal -0.750111 0.661312 0
    outer loop
      vertex -38.5257 31.8712 0
      vertex -36.4484 34.2274 75
      vertex -36.4484 34.2274 0
    endloop
  endfacet
  facet normal -0.790155 0.612907 0
    outer loop
      vertex -40.4508 29.3893 75
      vertex -38.5257 31.8712 75
      vertex -40.4508 29.3893 0
    endloop
  endfacet
  facet normal -0.790155 0.612907 0
    outer loop
      vertex -40.4508 29.3893 0
      vertex -38.5257 31.8712 75
      vertex -38.5257 31.8712 0
    endloop
  endfacet
  facet normal -0.827081 0.562083 0
    outer loop
      vertex -42.2164 26.7913 75
      vertex -40.4508 29.3893 75
      vertex -42.2164 26.7913 0
    endloop
  endfacet
  facet normal -0.827081 0.562083 0
    outer loop
      vertex -42.2164 26.7913 0
      vertex -40.4508 29.3893 75
      vertex -40.4508 29.3893 0
    endloop
  endfacet
  facet normal -0.860742 0.509041 0
    outer loop
      vertex -43.8153 24.0877 75
      vertex -42.2164 26.7913 75
      vertex -43.8153 24.0877 0
    endloop
  endfacet
  facet normal -0.860742 0.509041 0
    outer loop
      vertex -43.8153 24.0877 0
      vertex -42.2164 26.7913 75
      vertex -42.2164 26.7913 0
    endloop
  endfacet
  facet normal -0.891006 0.453991 0
    outer loop
      vertex -45.2414 21.289 75
      vertex -43.8153 24.0877 75
      vertex -45.2414 21.289 0
    endloop
  endfacet
  facet normal -0.891006 0.453991 0
    outer loop
      vertex -45.2414 21.289 0
      vertex -43.8153 24.0877 75
      vertex -43.8153 24.0877 0
    endloop
  endfacet
  facet normal -0.917755 0.397148 0
    outer loop
      vertex -46.4888 18.4062 75
      vertex -45.2414 21.289 75
      vertex -46.4888 18.4062 0
    endloop
  endfacet
  facet normal -0.917755 0.397148 0
    outer loop
      vertex -46.4888 18.4062 0
      vertex -45.2414 21.289 75
      vertex -45.2414 21.289 0
    endloop
  endfacet
  facet normal -0.940881 0.338738 0
    outer loop
      vertex -47.5528 15.4508 75
      vertex -46.4888 18.4062 75
      vertex -47.5528 15.4508 0
    endloop
  endfacet
  facet normal -0.940881 0.338738 0
    outer loop
      vertex -47.5528 15.4508 0
      vertex -46.4888 18.4062 75
      vertex -46.4888 18.4062 0
    endloop
  endfacet
  facet normal -0.960294 0.278991 0
    outer loop
      vertex -48.4292 12.4345 75
      vertex -47.5528 15.4508 75
      vertex -48.4292 12.4345 0
    endloop
  endfacet
  facet normal -0.960294 0.278991 0
    outer loop
      vertex -48.4292 12.4345 0
      vertex -47.5528 15.4508 75
      vertex -47.5528 15.4508 0
    endloop
  endfacet
  facet normal -0.975917 0.218143 0
    outer loop
      vertex -49.1144 9.36907 75
      vertex -48.4292 12.4345 75
      vertex -49.1144 9.36907 0
    endloop
  endfacet
  facet normal -0.975917 0.218143 0
    outer loop
      vertex -49.1144 9.36907 0
      vertex -48.4292 12.4345 75
      vertex -48.4292 12.4345 0
    endloop
  endfacet
  facet normal -0.987688 0.156434 0
    outer loop
      vertex -49.6057 6.26666 75
      vertex -49.1144 9.36907 75
      vertex -49.6057 6.26666 0
    endloop
  endfacet
  facet normal -0.987688 0.156434 0
    outer loop
      vertex -49.6057 6.26666 0
      vertex -49.1144 9.36907 75
      vertex -49.1144 9.36907 0
    endloop
  endfacet
  facet normal -0.995562 0.0941082 0
    outer loop
      vertex -49.9013 3.13953 75
      vertex -49.6057 6.26666 75
      vertex -49.9013 3.13953 0
    endloop
  endfacet
  facet normal -0.995562 0.0941082 0
    outer loop
      vertex -49.9013 3.13953 0
      vertex -49.6057 6.26666 75
      vertex -49.6057 6.26666 0
    endloop
  endfacet
  facet normal 0 0 1
    outer loop
      vertex -50 0 75
      vertex -49.9013 -3.13953 75
      vertex -49.6057 -6.26666 75
    endloop
  endfacet
  facet normal 0 0 1
    outer loop
      vertex -48.4292 -12.4345 75
      vertex -50 0 75
      vertex -49.1144 -9.36907 75
    endloop
  endfacet
  facet normal 0 0 1
    outer loop
      vertex -49.1144 -9.36907 75
      vertex -50 0 75
      vertex -49.6057 -6.26666 75
    endloop
  endfacet
  facet normal 0 0 1
    outer loop
      vertex -47.5528 -15.4508 75
      vertex -50 0 75
      vertex -48.4292 -12.4345 75
    endloop
  endfacet
  facet normal 0 0 1
    outer loop
      vertex -46.4888 -18.4062 75
      vertex -50 0 75
      vertex -47.5528 -15.4508 75
    endloop
  endfacet
  facet normal 0 0 1
    outer loop
      vertex -45.2414 -21.289 75
      vertex -50 0 75
      vertex -46.4888 -18.4062 75
    endloop
  endfacet
  facet normal 0 0 1
    outer loop
      vertex -43.8153 -24.0877 75
      vertex -50 0 75
      vertex -45.2414 -21.289 75
    endloop
  endfacet
  facet normal 0 0 1
    outer loop
      vertex -42.2164 -26.7913 75
      vertex -50 0 75
      vertex -43.8153 -24.0877 75
    endloop
  endfacet
  facet normal 0 0 1
    outer loop
      vertex -40.4508 -29.3893 75
      vertex -50 0 75
      vertex -42.2164 -26.7913 75
    endloop
  endfacet
  facet normal 0 0 1
    outer loop
      vertex -38.5257 -31.8712 75
      vertex -50 0 75
      vertex -40.4508 -29.3893 75
    endloop
  endfacet
  facet normal 0 0 1
    outer loop
      vertex -36.4484 -34.2274 75
      vertex -50 0 75
      vertex -38.5257 -31.8712 75
    endloop
  endfacet
  facet normal 0 0 1
    outer loop
      vertex -34.2274 -36.4484 75
      vertex -50 0 75
      vertex -36.4484 -34.2274 75
    endloop
  endfacet
  facet normal 0 0 1
    outer loop
      vertex -31.8712 -38.5257 75
      vertex -50 0 75
      vertex -34.2274 -36.4484 75
    endloop
  endfacet
  facet normal 0 0 1
    outer loop
      vertex -29.3893 -40.4508 75
      vertex -50 0 75
      vertex -31.8712 -38.5257 75
    endloop
  endfacet
  facet normal 0 0 1
    outer loop
      vertex -26.7913 -42.2164 75
      vertex -50 0 75
      vertex -29.3893 -40.4508 75
    endloop
  endfacet
  facet normal 0 0 1
    outer loop
      vertex -24.0877 -43.8153 75
      vertex -50 0 75
      vertex -26.7913 -42.2164 75
    endloop
  endfacet
  facet normal 0 0 1
    outer loop
      vertex -21.289 -45.2414 75
      vertex -50 0 75
      vertex -24.0877 -43.8153 75
    endloop
  endfacet
  facet normal 0 0 1
    outer loop
      vertex -18.4062 -46.4888 75
      vertex -50 0 75
      vertex -21.289 -45.2414 75
    endloop
  endfacet
  facet normal 0 0 1
    outer loop
      vertex -15.4508 -47.5528 75
      vertex -50 0 75
      vertex -18.4062 -46.4888 75
    endloop
  endfacet
  facet normal 0 0 1
    outer loop
      vertex -12.4345 -48.4292 75
      vertex -50 0 75
      vertex -15.4508 -47.5528 75
    endloop
  endfacet
  facet normal 0 0 1
    outer loop
      vertex -9.36907 -49.1144 75
      vertex -50 0 75
      vertex -12.4345 -48.4292 75
    endloop
  endfacet
  facet normal 0 0 1
    outer loop
      vertex -6.26666 -49.6057 75
      vertex -50 0 75
      vertex -9.36907 -49.1144 75
    endloop
  endfacet
  facet normal 0 0 1
    outer loop
      vertex -3.13953 -49.9013 75
      vertex -50 0 75
      vertex -6.26666 -49.6057 75
    endloop
  endfacet
  facet normal 0 0 1
    outer loop
      vertex 0 -50 75
      vertex -50 0 75
      vertex -3.13953 -49.9013 75
    endloop
  endfacet
  facet normal 0 0 1
    outer loop
      vertex 3.13953 -49.9013 75
      vertex -50 0 75
      vertex 0 -50 75
    endloop
  endfacet
  facet normal 0 0 1
    outer loop
      vertex 6.26666 -49.6057 75
      vertex -50 0 75
      vertex 3.13953 -49.9013 75
    endloop
  endfacet
  facet normal 0 0 1
    outer loop
      vertex 9.36907 -49.1144 75
      vertex -50 0 75
      vertex 6.26666 -49.6057 75
    endloop
  endfacet
  facet normal 0 0 1
    outer loop
      vertex 12.4345 -48.4292 75
      vertex -50 0 75
      vertex 9.36907 -49.1144 75
    endloop
  endfacet
  facet normal 0 0 1
    outer loop
      vertex 15.4508 -47.5528 75
      vertex -50 0 75
      vertex 12.4345 -48.4292 75
    endloop
  endfacet
  facet normal 0 0 1
    outer loop
      vertex 18.4062 -46.4888 75
      vertex -50 0 75
      vertex 15.4508 -47.5528 75
    endloop
  endfacet
  facet normal 0 0 1
    outer loop
      vertex 21.289 -45.2414 75
      vertex -50 0 75
      vertex 18.4062 -46.4888 75
    endloop
  endfacet
  facet normal 0 0 1
    outer loop
      vertex 24.0877 -43.8153 75
      vertex -50 0 75
      vertex 21.289 -45.2414 75
    endloop
  endfacet
  facet normal 0 0 1
    outer loop
      vertex 26.7913 -42.2164 75
      vertex -50 0 75
      vertex 24.0877 -43.8153 75
    endloop
  endfacet
  facet normal 0 0 1
    outer loop
      vertex 29.3893 -40.4508 75
      vertex -50 0 75
      vertex 26.7913 -42.2164 75
    endloop
  endfacet
  facet normal 0 0 1
    outer loop
      vertex 31.8712 -38.5257 75
      vertex -50 0 75
      vertex 29.3893 -40.4508 75
    endloop
  endfacet
  facet normal 0 0 1
    outer loop
      vertex 34.2274 -36.4484 75
      vertex -50 0 75
      vertex 31.8712 -38.5257 75
    endloop
  endfacet
  facet normal 0 0 1
    outer loop
      vertex 36.4484 -34.2274 75
      vertex -50 0 75
      vertex 34.2274 -36.4484 75
    endloop
  endfacet
  facet normal 0 0 1
    outer loop
      vertex 38.5257 -31.8712 75
      vertex -50 0 75
      vertex 36.4484 -34.2274 75
    endloop
  endfacet
  facet normal 0 0 1
    outer loop
      vertex 40.4508 -29.3893 75
      vertex -50 0 75
      vertex 38.5257 -31.8712 75
    endloop
  endfacet
  facet normal 0 0 1
    outer loop
      vertex 42.2164 -26.7913 75
      vertex -50 0 75
      vertex 40.4508 -29.3893 75
    endloop
  endfacet
  facet normal 0 0 1
    outer loop
      vertex 43.8153 -24.0877 75
      vertex -50 0 75
      vertex 42.2164 -26.7913 75
    endloop
  endfacet
  facet normal 0 0 1
    outer loop
      vertex 45.2414 -21.289 75
      vertex -50 0 75
      vertex 43.8153 -24.0877 75
    endloop
  endfacet
  facet normal 0 0 1
    outer loop
      vertex 46.4888 -18.4062 75
      vertex -50 0 75
      vertex 45.2414 -21.289 75
    endloop
  endfacet
  facet normal 0 0 1
    outer loop
      vertex 47.5528 -15.4508 75
      vertex -50 0 75
      vertex 46.4888 -18.4062 75
    endloop
  endfacet
  facet normal 0 0 1
    outer loop
      vertex 48.4292 -12.4345 75
      vertex -50 0 75
      vertex 47.5528 -15.4508 75
    endloop
  endfacet
  facet normal 0 0 1
    outer loop
      vertex 49.1144 -9.36907 75
      vertex -50 0 75
      vertex 48.4292 -12.4345 75
    endloop
  endfacet
  facet normal 0 0 1
    outer loop
      vertex 49.6057 -6.26666 75
      vertex -50 0 75
      vertex 49.1144 -9.36907 75
    endloop
  endfacet
  facet normal 0 0 1
    outer loop
      vertex 49.9013 -3.13953 75
      vertex -50 0 75
      vertex 49.6057 -6.26666 75
    endloop
  endfacet
  facet normal 0 0 1
    outer loop
      vertex 50 0 75
      vertex -50 0 75
      vertex 49.9013 -3.13953 75
    endloop
  endfacet
  facet normal 0 0 1
    outer loop
      vertex 49.9013 3.13953 75
      vertex -50 0 75
      vertex 50 0 75
    endloop
  endfacet
  facet normal 0 0 1
    outer loop
      vertex 49.6057 6.26666 75
      vertex -50 0 75
      vertex 49.9013 3.13953 75
    endloop
  endfacet
  facet normal 0 0 1
    outer loop
      vertex 49.1144 9.36907 75
      vertex -50 0 75
      vertex 49.6057 6.26666 75
    endloop
  endfacet
  facet normal 0 0 1
    outer loop
      vertex 48.4292 12.4345 75
      vertex -50 0 75
      vertex 49.1144 9.36907 75
    endloop
  endfacet
  facet normal 0 0 1
    outer loop
      vertex 47.5528 15.4508 75
      vertex -50 0 75
      vertex 48.4292 12.4345 75
    endloop
  endfacet
  facet normal 0 0 1
    outer loop
      vertex 46.4888 18.4062 75
      vertex -50 0 75
      vertex 47.5528 15.4508 75
    endloop
  endfacet
  facet normal 0 0 1
    outer loop
      vertex 45.2414 21.289 75
      vertex -50 0 75
      vertex 46.4888 18.4062 75
    endloop
  endfacet
  facet normal 0 0 1
    outer loop
      vertex 43.8153 24.0877 75
      vertex -50 0 75
      vertex 45.2414 21.289 75
    endloop
  endfacet
  facet normal 0 0 1
    outer loop
      vertex 42.2164 26.7913 75
      vertex -50 0 75
      vertex 43.8153 24.0877 75
    endloop
  endfacet
  facet normal 0 0 1
    outer loop
      vertex 40.4508 29.3893 75
      vertex -50 0 75
      vertex 42.2164 26.7913 75
    endloop
  endfacet
  facet normal 0 0 1
    outer loop
      vertex 38.5257 31.8712 75
      vertex -50 0 75
      vertex 40.4508 29.3893 75
    endloop
  endfacet
  facet normal 0 0 1
    outer loop
      vertex 36.4484 34.2274 75
      vertex -50 0 75
      vertex 38.5257 31.8712 75
    endloop
  endfacet
  facet normal 0 0 1
    outer loop
      vertex 34.2274 36.4484 75
      vertex -50 0 75
      vertex 36.4484 34.2274 75
    endloop
  endfacet
  facet normal 0 0 1
    outer loop
      vertex 31.8712 38.5257 75
      vertex -50 0 75
      vertex 34.2274 36.4484 75
    endloop
  endfacet
  facet normal 0 0 1
    outer loop
      vertex 29.3893 40.4508 75
      vertex -50 0 75
      vertex 31.8712 38.5257 75
    endloop
  endfacet
  facet normal 0 0 1
    outer loop
      vertex 26.7913 42.2164 75
      vertex -50 0 75
      vertex 29.3893 40.4508 75
    endloop
  endfacet
  facet normal 0 0 1
    outer loop
      vertex 24.0877 43.8153 75
      vertex -50 0 75
      vertex 26.7913 42.2164 75
    endloop
  endfacet
  facet normal 0 0 1
    outer loop
      vertex 21.289 45.2414 75
      vertex -50 0 75
      vertex 24.0877 43.8153 75
    endloop
  endfacet
  facet normal 0 0 1
    outer loop
      vertex 18.4062 46.4888 75
      vertex -50 0 75
      vertex 21.289 45.2414 75
    endloop
  endfacet
  facet normal 0 0 1
    outer loop
      vertex 15.4508 47.5528 75
      vertex -50 0 75
      vertex 18.4062 46.4888 75
    endloop
  endfacet
  facet normal 0 0 1
    outer loop
      vertex 12.4345 48.4292 75
      vertex -50 0 75
      vertex 15.4508 47.5528 75
    endloop
  endfacet
  facet normal 0 0 1
    outer loop
      vertex 9.36907 49.1144 75
      vertex -50 0 75
      vertex 12.4345 48.4292 75
    endloop
  endfacet
  facet normal 0 0 1
    outer loop
      vertex 6.26666 49.6057 75
      vertex -50 0 75
      vertex 9.36907 49.1144 75
    endloop
  endfacet
  facet normal 0 0 1
    outer loop
      vertex 3.13953 49.9013 75
      vertex -50 0 75
      vertex 6.26666 49.6057 75
    endloop
  endfacet
  facet normal 0 0 1
    outer loop
      vertex 0 50 75
      vertex -50 0 75
      vertex 3.13953 49.9013 75
    endloop
  endfacet
  facet normal 0 0 1
    outer loop
      vertex -3.13953 49.9013 75
      vertex -50 0 75
      vertex 0 50 75
    endloop
  endfacet
  facet normal 0 0 1
    outer loop
      vertex -6.26666 49.6057 75
      vertex -50 0 75
      vertex -3.13953 49.9013 75
    endloop
  endfacet
  facet normal 0 0 1
    outer loop
      vertex -9.36907 49.1144 75
      vertex -50 0 75
      vertex -6.26666 49.6057 75
    endloop
  endfacet
  facet normal 0 0 1
    outer loop
      vertex -12.4345 48.4292 75
      vertex -50 0 75
      vertex -9.36907 49.1144 75
    endloop
  endfacet
  facet normal 0 0 1
    outer loop
      vertex -15.4508 47.5528 75
      vertex -50 0 75
      vertex -12.4345 48.4292 75
    endloop
  endfacet
  facet normal 0 0 1
    outer loop
      vertex -18.4062 46.4888 75
      vertex -50 0 75
      vertex -15.4508 47.5528 75
    endloop
  endfacet
  facet normal 0 0 1
    outer loop
      vertex -21.289 45.2414 75
      vertex -50 0 75
      vertex -18.4062 46.4888 75
    endloop
  endfacet
  facet normal 0 0 1
    outer loop
      vertex -24.0877 43.8153 75
      vertex -50 0 75
      vertex -21.289 45.2414 75
    endloop
  endfacet
  facet normal 0 0 1
    outer loop
      vertex -26.7913 42.2164 75
      vertex -50 0 75
      vertex -24.0877 43.8153 75
    endloop
  endfacet
  facet normal 0 0 1
    outer loop
      vertex -29.3893 40.4508 75
      vertex -50 0 75
      vertex -26.7913 42.2164 75
    endloop
  endfacet
  facet normal 0 0 1
    outer loop
      vertex -31.8712 38.5257 75
      vertex -50 0 75
      vertex -29.3893 40.4508 75
    endloop
  endfacet
  facet normal 0 0 1
    outer loop
      vertex -34.2274 36.4484 75
      vertex -50 0 75
      vertex -31.8712 38.5257 75
    endloop
  endfacet
  facet normal 0 0 1
    outer loop
      vertex -36.4484 34.2274 75
      vertex -50 0 75
      vertex -34.2274 36.4484 75
    endloop
  endfacet
  facet normal 0 0 1
    outer loop
      vertex -38.5257 31.8712 75
      vertex -50 0 75
      vertex -36.4484 34.2274 75
    endloop
  endfacet
  facet normal 0 0 1
    outer loop
      vertex -40.4508 29.3893 75
      vertex -50 0 75
      vertex -38.5257 31.8712 75
    endloop
  endfacet
  facet normal 0 0 1
    outer loop
      vertex -42.2164 26.7913 75
      vertex -50 0 75
      vertex -40.4508 29.3893 75
    endloop
  endfacet
  facet normal 0 0 1
    outer loop
      vertex -43.8153 24.0877 75
      vertex -50 0 75
      vertex -42.2164 26.7913 75
    endloop
  endfacet
  facet normal 0 0 1
    outer loop
      vertex -45.2414 21.289 75
      vertex -50 0 75
      vertex -43.8153 24.0877 75
    endloop
  endfacet
  facet normal 0 0 1
    outer loop
      vertex -46.4888 18.4062 75
      vertex -50 0 75
      vertex -45.2414 21.289 75
    endloop
  endfacet
  facet normal 0 0 1
    outer loop
      vertex -47.5528 15.4508 75
      vertex -50 0 75
      vertex -46.4888 18.4062 75
    endloop
  endfacet
  facet normal 0 0 1
    outer loop
      vertex -48.4292 12.4345 75
      vertex -50 0 75
      vertex -47.5528 15.4508 75
    endloop
  endfacet
  facet normal 0 0 1
    outer loop
      vertex -49.1144 9.36907 75
      vertex -50 0 75
      vertex -48.4292 12.4345 75
    endloop
  endfacet
  facet normal 0 0 1
    outer loop
      vertex -49.6057 6.26666 75
      vertex -50 0 75
      vertex -49.1144 9.36907 75
    endloop
  endfacet
  facet normal 0 0 1
    outer loop
      vertex -49.9013 3.13953 75
      vertex -50 0 75
      vertex -49.6057 6.26666 75
    endloop
  endfacet
endsolid OpenSCAD_Model
