solid OpenSCAD_Model
  facet normal 0 0 -1
    outer loop
      vertex -48.4043 3.04534 0
      vertex -48.1176 6.07866 0
      vertex -48.5 0 0
    endloop
  endfacet
  facet normal 0 0 -1
    outer loop
      vertex -48.5 0 0
      vertex -48.1176 6.07866 0
      vertex -47.6409 9.08799 0
    endloop
  endfacet
  facet normal 0 0 -1
    outer loop
      vertex -48.5 0 0
      vertex -47.6409 9.08799 0
      vertex -46.9763 12.0615 0
    endloop
  endfacet
  facet normal 0 0 -1
    outer loop
      vertex -48.5 0 0
      vertex -46.9763 12.0615 0
      vertex -46.1262 14.9873 0
    endloop
  endfacet
  facet normal 0 0 -1
    outer loop
      vertex -48.5 0 0
      vertex -46.1262 14.9873 0
      vertex -45.0942 17.854 0
    endloop
  endfacet
  facet normal 0 0 -1
    outer loop
      vertex -48.5 0 0
      vertex -45.0942 17.854 0
      vertex -43.8841 20.6503 0
    endloop
  endfacet
  facet normal 0 0 -1
    outer loop
      vertex -48.5 0 0
      vertex -43.8841 20.6503 0
      vertex -42.5009 23.3651 0
    endloop
  endfacet
  facet normal 0 0 -1
    outer loop
      vertex -48.5 0 0
      vertex -42.5009 23.3651 0
      vertex -40.9499 25.9876 0
    endloop
  endfacet
  facet normal 0 0 -1
    outer loop
      vertex -48.5 0 0
      vertex -40.9499 25.9876 0
      vertex -39.2373 28.5076 0
    endloop
  endfacet
  facet normal 0 0 -1
    outer loop
      vertex -48.5 0 0
      vertex -39.2373 28.5076 0
      vertex -37.3699 30.9151 0
    endloop
  endfacet
  facet normal 0 0 -1
    outer loop
      vertex -48.5 0 0
      vertex -37.3699 30.9151 0
      vertex -35.355 33.2005 0
    endloop
  endfacet
  facet normal 0 0 -1
    outer loop
      vertex -48.5 0 0
      vertex -35.355 33.2005 0
      vertex -33.2005 35.355 0
    endloop
  endfacet
  facet normal 0 0 -1
    outer loop
      vertex -48.5 0 0
      vertex -33.2005 35.355 0
      vertex -30.9151 37.3699 0
    endloop
  endfacet
  facet normal 0 0 -1
    outer loop
      vertex -48.5 0 0
      vertex -30.9151 37.3699 0
      vertex -28.5076 39.2373 0
    endloop
  endfacet
  facet normal 0 0 -1
    outer loop
      vertex -48.5 0 0
      vertex -28.5076 39.2373 0
      vertex -25.9876 40.9499 0
    endloop
  endfacet
  facet normal 0 0 -1
    outer loop
      vertex -48.5 0 0
      vertex -25.9876 40.9499 0
      vertex -23.3651 42.5009 0
    endloop
  endfacet
  facet normal 0 0 -1
    outer loop
      vertex -48.5 0 0
      vertex -23.3651 42.5009 0
      vertex -20.6503 43.8841 0
    endloop
  endfacet
  facet normal 0 0 -1
    outer loop
      vertex -48.5 0 0
      vertex -20.6503 43.8841 0
      vertex -17.854 45.0942 0
    endloop
  endfacet
  facet normal 0 0 -1
    outer loop
      vertex -48.5 0 0
      vertex -17.854 45.0942 0
      vertex -14.9873 46.1262 0
    endloop
  endfacet
  facet normal 0 0 -1
    outer loop
      vertex -48.5 0 0
      vertex -14.9873 46.1262 0
      vertex -12.0615 46.9763 0
    endloop
  endfacet
  facet normal 0 0 -1
    outer loop
      vertex -48.5 0 0
      vertex -12.0615 46.9763 0
      vertex -9.08799 47.6409 0
    endloop
  endfacet
  facet normal 0 0 -1
    outer loop
      vertex -48.5 0 0
      vertex -9.08799 47.6409 0
      vertex -6.07866 48.1176 0
    endloop
  endfacet
  facet normal 0 0 -1
    outer loop
      vertex -48.5 0 0
      vertex -6.07866 48.1176 0
      vertex -3.04534 48.4043 0
    endloop
  endfacet
  facet normal 0 0 -1
    outer loop
      vertex -48.5 0 0
      vertex -3.04534 48.4043 0
      vertex 0 48.5 0
    endloop
  endfacet
  facet normal 0 0 -1
    outer loop
      vertex -48.5 0 0
      vertex 0 48.5 0
      vertex 3.04534 48.4043 0
    endloop
  endfacet
  facet normal 0 0 -1
    outer loop
      vertex -48.5 0 0
      vertex 3.04534 48.4043 0
      vertex 6.07866 48.1176 0
    endloop
  endfacet
  facet normal 0 0 -1
    outer loop
      vertex -48.5 0 0
      vertex 6.07866 48.1176 0
      vertex 9.08799 47.6409 0
    endloop
  endfacet
  facet normal 0 0 -1
    outer loop
      vertex -48.5 0 0
      vertex 9.08799 47.6409 0
      vertex 12.0615 46.9763 0
    endloop
  endfacet
  facet normal 0 0 -1
    outer loop
      vertex -48.5 0 0
      vertex 12.0615 46.9763 0
      vertex 14.9873 46.1262 0
    endloop
  endfacet
  facet normal 0 0 -1
    outer loop
      vertex -48.5 0 0
      vertex 14.9873 46.1262 0
      vertex 17.854 45.0942 0
    endloop
  endfacet
  facet normal 0 0 -1
    outer loop
      vertex -48.5 0 0
      vertex 17.854 45.0942 0
      vertex 20.6503 43.8841 0
    endloop
  endfacet
  facet normal 0 0 -1
    outer loop
      vertex -48.5 0 0
      vertex 20.6503 43.8841 0
      vertex 23.3651 42.5009 0
    endloop
  endfacet
  facet normal 0 0 -1
    outer loop
      vertex -48.5 0 0
      vertex 23.3651 42.5009 0
      vertex 25.9876 40.9499 0
    endloop
  endfacet
  facet normal 0 0 -1
    outer loop
      vertex -48.5 0 0
      vertex 25.9876 40.9499 0
      vertex 28.5076 39.2373 0
    endloop
  endfacet
  facet normal 0 0 -1
    outer loop
      vertex -48.5 0 0
      vertex 28.5076 39.2373 0
      vertex 30.9151 37.3699 0
    endloop
  endfacet
  facet normal 0 0 -1
    outer loop
      vertex -48.5 0 0
      vertex 30.9151 37.3699 0
      vertex 33.2005 35.355 0
    endloop
  endfacet
  facet normal 0 0 -1
    outer loop
      vertex -48.5 0 0
      vertex 33.2005 35.355 0
      vertex 35.355 33.2005 0
    endloop
  endfacet
  facet normal 0 0 -1
    outer loop
      vertex -48.5 0 0
      vertex 35.355 33.2005 0
      vertex 37.3699 30.9151 0
    endloop
  endfacet
  facet normal 0 0 -1
    outer loop
      vertex -48.5 0 0
      vertex 37.3699 30.9151 0
      vertex 39.2373 28.5076 0
    endloop
  endfacet
  facet normal 0 0 -1
    outer loop
      vertex -48.5 0 0
      vertex 39.2373 28.5076 0
      vertex 40.9499 25.9876 0
    endloop
  endfacet
  facet normal 0 0 -1
    outer loop
      vertex -48.5 0 0
      vertex 40.9499 25.9876 0
      vertex 42.5009 23.3651 0
    endloop
  endfacet
  facet normal 0 0 -1
    outer loop
      vertex -48.5 0 0
      vertex 42.5009 23.3651 0
      vertex 43.8841 20.6503 0
    endloop
  endfacet
  facet normal 0 0 -1
    outer loop
      vertex -48.5 0 0
      vertex 43.8841 20.6503 0
      vertex 45.0942 17.854 0
    endloop
  endfacet
  facet normal 0 0 -1
    outer loop
      vertex -48.5 0 0
      vertex 45.0942 17.854 0
      vertex 46.1262 14.9873 0
    endloop
  endfacet
  facet normal 0 0 -1
    outer loop
      vertex -48.5 0 0
      vertex 46.1262 14.9873 0
      vertex 46.9763 12.0615 0
    endloop
  endfacet
  facet normal 0 0 -1
    outer loop
      vertex -48.5 0 0
      vertex 46.9763 12.0615 0
      vertex 47.6409 9.08799 0
    endloop
  endfacet
  facet normal 0 0 -1
    outer loop
      vertex -48.5 0 0
      vertex 47.6409 9.08799 0
      vertex 48.1176 6.07866 0
    endloop
  endfacet
  facet normal 0 0 -1
    outer loop
      vertex -48.5 0 0
      vertex 48.1176 6.07866 0
      vertex 48.4043 3.04534 0
    endloop
  endfacet
  facet normal 0 0 -1
    outer loop
      vertex -48.5 0 0
      vertex 48.4043 3.04534 0
      vertex 48.5 0 0
    endloop
  endfacet
  facet normal 0 0 -1
    outer loop
      vertex -48.5 0 0
      vertex 48.5 0 0
      vertex 48.4043 -3.04534 0
    endloop
  endfacet
  facet normal 0 0 -1
    outer loop
      vertex -48.5 0 0
      vertex 48.4043 -3.04534 0
      vertex 48.1176 -6.07866 0
    endloop
  endfacet
  facet normal 0 0 -1
    outer loop
      vertex -48.5 0 0
      vertex 48.1176 -6.07866 0
      vertex 47.6409 -9.08799 0
    endloop
  endfacet
  facet normal 0 0 -1
    outer loop
      vertex -48.5 0 0
      vertex 47.6409 -9.08799 0
      vertex 46.9763 -12.0615 0
    endloop
  endfacet
  facet normal 0 0 -1
    outer loop
      vertex -48.5 0 0
      vertex 46.9763 -12.0615 0
      vertex 46.1262 -14.9873 0
    endloop
  endfacet
  facet normal 0 0 -1
    outer loop
      vertex -48.5 0 0
      vertex 46.1262 -14.9873 0
      vertex 45.0942 -17.854 0
    endloop
  endfacet
  facet normal 0 0 -1
    outer loop
      vertex -48.5 0 0
      vertex 45.0942 -17.854 0
      vertex 43.8841 -20.6503 0
    endloop
  endfacet
  facet normal 0 0 -1
    outer loop
      vertex -48.5 0 0
      vertex 43.8841 -20.6503 0
      vertex 42.5009 -23.3651 0
    endloop
  endfacet
  facet normal 0 0 -1
    outer loop
      vertex -48.5 0 0
      vertex 42.5009 -23.3651 0
      vertex 40.9499 -25.9876 0
    endloop
  endfacet
  facet normal 0 0 -1
    outer loop
      vertex -48.5 0 0
      vertex 40.9499 -25.9876 0
      vertex 39.2373 -28.5076 0
    endloop
  endfacet
  facet normal 0 0 -1
    outer loop
      vertex -48.5 0 0
      vertex 39.2373 -28.5076 0
      vertex 37.3699 -30.9151 0
    endloop
  endfacet
  facet normal 0 0 -1
    outer loop
      vertex -48.5 0 0
      vertex 37.3699 -30.9151 0
      vertex 35.355 -33.2005 0
    endloop
  endfacet
  facet normal 0 0 -1
    outer loop
      vertex -48.5 0 0
      vertex 35.355 -33.2005 0
      vertex 33.2005 -35.355 0
    endloop
  endfacet
  facet normal 0 0 -1
    outer loop
      vertex -48.5 0 0
      vertex 33.2005 -35.355 0
      vertex 30.9151 -37.3699 0
    endloop
  endfacet
  facet normal 0 0 -1
    outer loop
      vertex -48.5 0 0
      vertex 30.9151 -37.3699 0
      vertex 28.5076 -39.2373 0
    endloop
  endfacet
  facet normal 0 0 -1
    outer loop
      vertex -48.5 0 0
      vertex 28.5076 -39.2373 0
      vertex 25.9876 -40.9499 0
    endloop
  endfacet
  facet normal 0 0 -1
    outer loop
      vertex -48.5 0 0
      vertex 25.9876 -40.9499 0
      vertex 23.3651 -42.5009 0
    endloop
  endfacet
  facet normal 0 0 -1
    outer loop
      vertex -48.5 0 0
      vertex 23.3651 -42.5009 0
      vertex 20.6503 -43.8841 0
    endloop
  endfacet
  facet normal 0 0 -1
    outer loop
      vertex -48.5 0 0
      vertex 20.6503 -43.8841 0
      vertex 17.854 -45.0942 0
    endloop
  endfacet
  facet normal 0 0 -1
    outer loop
      vertex -48.5 0 0
      vertex 17.854 -45.0942 0
      vertex 14.9873 -46.1262 0
    endloop
  endfacet
  facet normal 0 0 -1
    outer loop
      vertex -48.5 0 0
      vertex 14.9873 -46.1262 0
      vertex 12.0615 -46.9763 0
    endloop
  endfacet
  facet normal 0 0 -1
    outer loop
      vertex -48.5 0 0
      vertex 12.0615 -46.9763 0
      vertex 9.08799 -47.6409 0
    endloop
  endfacet
  facet normal 0 0 -1
    outer loop
      vertex -48.5 0 0
      vertex 9.08799 -47.6409 0
      vertex 6.07866 -48.1176 0
    endloop
  endfacet
  facet normal 0 0 -1
    outer loop
      vertex -48.5 0 0
      vertex 6.07866 -48.1176 0
      vertex 3.04534 -48.4043 0
    endloop
  endfacet
  facet normal 0 0 -1
    outer loop
      vertex -48.5 0 0
      vertex 3.04534 -48.4043 0
      vertex 0 -48.5 0
    endloop
  endfacet
  facet normal 0 0 -1
    outer loop
      vertex -48.5 0 0
      vertex 0 -48.5 0
      vertex -3.04534 -48.4043 0
    endloop
  endfacet
  facet normal 0 0 -1
    outer loop
      vertex -48.5 0 0
      vertex -3.04534 -48.4043 0
      vertex -6.07866 -48.1176 0
    endloop
  endfacet
  facet normal 0 0 -1
    outer loop
      vertex -48.5 0 0
      vertex -6.07866 -48.1176 0
      vertex -9.08799 -47.6409 0
    endloop
  endfacet
  facet normal 0 0 -1
    outer loop
      vertex -48.5 0 0
      vertex -9.08799 -47.6409 0
      vertex -12.0615 -46.9763 0
    endloop
  endfacet
  facet normal 0 0 -1
    outer loop
      vertex -48.5 0 0
      vertex -12.0615 -46.9763 0
      vertex -14.9873 -46.1262 0
    endloop
  endfacet
  facet normal 0 0 -1
    outer loop
      vertex -48.5 0 0
      vertex -14.9873 -46.1262 0
      vertex -17.854 -45.0942 0
    endloop
  endfacet
  facet normal 0 0 -1
    outer loop
      vertex -48.5 0 0
      vertex -17.854 -45.0942 0
      vertex -20.6503 -43.8841 0
    endloop
  endfacet
  facet normal 0 0 -1
    outer loop
      vertex -48.5 0 0
      vertex -20.6503 -43.8841 0
      vertex -23.3651 -42.5009 0
    endloop
  endfacet
  facet normal 0 0 -1
    outer loop
      vertex -48.5 0 0
      vertex -23.3651 -42.5009 0
      vertex -25.9876 -40.9499 0
    endloop
  endfacet
  facet normal 0 0 -1
    outer loop
      vertex -48.5 0 0
      vertex -25.9876 -40.9499 0
      vertex -28.5076 -39.2373 0
    endloop
  endfacet
  facet normal 0 0 -1
    outer loop
      vertex -48.5 0 0
      vertex -28.5076 -39.2373 0
      vertex -30.9151 -37.3699 0
    endloop
  endfacet
  facet normal 0 0 -1
    outer loop
      vertex -48.5 0 0
      vertex -30.9151 -37.3699 0
      vertex -33.2005 -35.355 0
    endloop
  endfacet
  facet normal 0 0 -1
    outer loop
      vertex -48.5 0 0
      vertex -33.2005 -35.355 0
      vertex -35.355 -33.2005 0
    endloop
  endfacet
  facet normal 0 0 -1
    outer loop
      vertex -48.5 0 0
      vertex -35.355 -33.2005 0
      vertex -37.3699 -30.9151 0
    endloop
  endfacet
  facet normal 0 0 -1
    outer loop
      vertex -48.5 0 0
      vertex -37.3699 -30.9151 0
      vertex -39.2373 -28.5076 0
    endloop
  endfacet
  facet normal 0 0 -1
    outer loop
      vertex -48.5 0 0
      vertex -39.2373 -28.5076 0
      vertex -40.9499 -25.9876 0
    endloop
  endfacet
  facet normal 0 0 -1
    outer loop
      vertex -48.5 0 0
      vertex -40.9499 -25.9876 0
      vertex -42.5009 -23.3651 0
    endloop
  endfacet
  facet normal 0 0 -1
    outer loop
      vertex -48.5 0 0
      vertex -42.5009 -23.3651 0
      vertex -43.8841 -20.6503 0
    endloop
  endfacet
  facet normal 0 0 -1
    outer loop
      vertex -48.5 0 0
      vertex -43.8841 -20.6503 0
      vertex -45.0942 -17.854 0
    endloop
  endfacet
  facet normal 0 0 -1
    outer loop
      vertex -48.5 0 0
      vertex -45.0942 -17.854 0
      vertex -46.1262 -14.9873 0
    endloop
  endfacet
  facet normal 0 0 -1
    outer loop
      vertex -48.5 0 0
      vertex -46.1262 -14.9873 0
      vertex -46.9763 -12.0615 0
    endloop
  endfacet
  facet normal 0 0 -1
    outer loop
      vertex -48.5 0 0
      vertex -46.9763 -12.0615 0
      vertex -47.6409 -9.08799 0
    endloop
  endfacet
  facet normal 0 0 -1
    outer loop
      vertex -48.5 0 0
      vertex -47.6409 -9.08799 0
      vertex -48.1176 -6.07866 0
    endloop
  endfacet
  facet normal 0 0 -1
    outer loop
      vertex -48.5 0 0
      vertex -48.1176 -6.07866 0
      vertex -48.4043 -3.04534 0
    endloop
  endfacet
  facet normal 0.999507 0.0314109 0
    outer loop
      vertex 48.4043 3.04534 0
      vertex 48.4043 3.04534 75
      vertex 48.5 0 75
    endloop
  endfacet
  facet normal 0.999507 0.0314109 0
    outer loop
      vertex 48.5 0 0
      vertex 48.4043 3.04534 0
      vertex 48.5 0 75
    endloop
  endfacet
  facet normal 0.995562 0.0941082 0
    outer loop
      vertex 48.1176 6.07866 0
      vertex 48.1176 6.07866 75
      vertex 48.4043 3.04534 75
    endloop
  endfacet
  facet normal 0.995562 0.0941082 0
    outer loop
      vertex 48.4043 3.04534 0
      vertex 48.1176 6.07866 0
      vertex 48.4043 3.04534 75
    endloop
  endfacet
  facet normal -0.999507 0.0314109 0
    outer loop
      vertex -48.5 0 75
      vertex -48.4043 3.04534 75
      vertex -48.5 0 0
    endloop
  endfacet
  facet normal -0.999507 0.0314109 0
    outer loop
      vertex -48.5 0 0
      vertex -48.4043 3.04534 75
      vertex -48.4043 3.04534 0
    endloop
  endfacet
  facet normal -0.999507 -0.0314109 0
    outer loop
      vertex -48.4043 -3.04534 0
      vertex -48.4043 -3.04534 75
      vertex -48.5 0 0
    endloop
  endfacet
  facet normal -0.999507 -0.0314109 0
    outer loop
      vertex -48.5 0 0
      vertex -48.4043 -3.04534 75
      vertex -48.5 0 75
    endloop
  endfacet
  facet normal -0.995562 -0.0941082 0
    outer loop
      vertex -48.1176 -6.07866 0
      vertex -48.1176 -6.07866 75
      vertex -48.4043 -3.04534 0
    endloop
  endfacet
  facet normal -0.995562 -0.0941082 0
    outer loop
      vertex -48.4043 -3.04534 0
      vertex -48.1176 -6.07866 75
      vertex -48.4043 -3.04534 75
    endloop
  endfacet
  facet normal -0.987688 -0.156434 0
    outer loop
      vertex -47.6409 -9.08799 0
      vertex -47.6409 -9.08799 75
      vertex -48.1176 -6.07866 0
    endloop
  endfacet
  facet normal -0.987688 -0.156434 0
    outer loop
      vertex -48.1176 -6.07866 0
      vertex -47.6409 -9.08799 75
      vertex -48.1176 -6.07866 75
    endloop
  endfacet
  facet normal -0.975917 -0.218143 0
    outer loop
      vertex -46.9763 -12.0615 0
      vertex -46.9763 -12.0615 75
      vertex -47.6409 -9.08799 0
    endloop
  endfacet
  facet normal -0.975917 -0.218143 0
    outer loop
      vertex -47.6409 -9.08799 0
      vertex -46.9763 -12.0615 75
      vertex -47.6409 -9.08799 75
    endloop
  endfacet
  facet normal -0.960294 -0.278991 0
    outer loop
      vertex -46.1262 -14.9873 0
      vertex -46.1262 -14.9873 75
      vertex -46.9763 -12.0615 0
    endloop
  endfacet
  facet normal -0.960294 -0.278991 0
    outer loop
      vertex -46.9763 -12.0615 0
      vertex -46.1262 -14.9873 75
      vertex -46.9763 -12.0615 75
    endloop
  endfacet
  facet normal -0.940881 -0.338738 0
    outer loop
      vertex -45.0942 -17.854 0
      vertex -45.0942 -17.854 75
      vertex -46.1262 -14.9873 0
    endloop
  endfacet
  facet normal -0.940881 -0.338738 0
    outer loop
      vertex -46.1262 -14.9873 0
      vertex -45.0942 -17.854 75
      vertex -46.1262 -14.9873 75
    endloop
  endfacet
  facet normal -0.917755 -0.397148 0
    outer loop
      vertex -43.8841 -20.6503 0
      vertex -43.8841 -20.6503 75
      vertex -45.0942 -17.854 0
    endloop
  endfacet
  facet normal -0.917755 -0.397148 0
    outer loop
      vertex -45.0942 -17.854 0
      vertex -43.8841 -20.6503 75
      vertex -45.0942 -17.854 75
    endloop
  endfacet
  facet normal -0.891006 -0.453991 0
    outer loop
      vertex -42.5009 -23.3651 0
      vertex -42.5009 -23.3651 75
      vertex -43.8841 -20.6503 0
    endloop
  endfacet
  facet normal -0.891006 -0.453991 0
    outer loop
      vertex -43.8841 -20.6503 0
      vertex -42.5009 -23.3651 75
      vertex -43.8841 -20.6503 75
    endloop
  endfacet
  facet normal -0.860742 -0.509041 0
    outer loop
      vertex -40.9499 -25.9876 0
      vertex -40.9499 -25.9876 75
      vertex -42.5009 -23.3651 0
    endloop
  endfacet
  facet normal -0.860742 -0.509041 0
    outer loop
      vertex -42.5009 -23.3651 0
      vertex -40.9499 -25.9876 75
      vertex -42.5009 -23.3651 75
    endloop
  endfacet
  facet normal -0.827081 -0.562083 0
    outer loop
      vertex -39.2373 -28.5076 0
      vertex -39.2373 -28.5076 75
      vertex -40.9499 -25.9876 0
    endloop
  endfacet
  facet normal -0.827081 -0.562083 0
    outer loop
      vertex -40.9499 -25.9876 0
      vertex -39.2373 -28.5076 75
      vertex -40.9499 -25.9876 75
    endloop
  endfacet
  facet normal -0.790155 -0.612907 0
    outer loop
      vertex -37.3699 -30.9151 0
      vertex -37.3699 -30.9151 75
      vertex -39.2373 -28.5076 0
    endloop
  endfacet
  facet normal -0.790155 -0.612907 0
    outer loop
      vertex -39.2373 -28.5076 0
      vertex -37.3699 -30.9151 75
      vertex -39.2373 -28.5076 75
    endloop
  endfacet
  facet normal -0.750111 -0.661312 0
    outer loop
      vertex -35.355 -33.2005 0
      vertex -35.355 -33.2005 75
      vertex -37.3699 -30.9151 0
    endloop
  endfacet
  facet normal -0.750111 -0.661312 0
    outer loop
      vertex -37.3699 -30.9151 0
      vertex -35.355 -33.2005 75
      vertex -37.3699 -30.9151 75
    endloop
  endfacet
  facet normal -0.707107 -0.707107 0
    outer loop
      vertex -35.355 -33.2005 0
      vertex -33.2005 -35.355 0
      vertex -33.2005 -35.355 75
    endloop
  endfacet
  facet normal -0.707107 -0.707107 0
    outer loop
      vertex -35.355 -33.2005 75
      vertex -35.355 -33.2005 0
      vertex -33.2005 -35.355 75
    endloop
  endfacet
  facet normal -0.661312 -0.750111 0
    outer loop
      vertex -33.2005 -35.355 0
      vertex -30.9151 -37.3699 0
      vertex -30.9151 -37.3699 75
    endloop
  endfacet
  facet normal -0.661312 -0.750111 0
    outer loop
      vertex -33.2005 -35.355 75
      vertex -33.2005 -35.355 0
      vertex -30.9151 -37.3699 75
    endloop
  endfacet
  facet normal -0.612907 -0.790155 0
    outer loop
      vertex -30.9151 -37.3699 0
      vertex -28.5076 -39.2373 0
      vertex -28.5076 -39.2373 75
    endloop
  endfacet
  facet normal -0.612907 -0.790155 0
    outer loop
      vertex -30.9151 -37.3699 75
      vertex -30.9151 -37.3699 0
      vertex -28.5076 -39.2373 75
    endloop
  endfacet
  facet normal -0.562083 -0.827081 0
    outer loop
      vertex -28.5076 -39.2373 0
      vertex -25.9876 -40.9499 0
      vertex -25.9876 -40.9499 75
    endloop
  endfacet
  facet normal -0.562083 -0.827081 0
    outer loop
      vertex -28.5076 -39.2373 75
      vertex -28.5076 -39.2373 0
      vertex -25.9876 -40.9499 75
    endloop
  endfacet
  facet normal -0.509041 -0.860742 0
    outer loop
      vertex -25.9876 -40.9499 0
      vertex -23.3651 -42.5009 0
      vertex -23.3651 -42.5009 75
    endloop
  endfacet
  facet normal -0.509041 -0.860742 0
    outer loop
      vertex -25.9876 -40.9499 75
      vertex -25.9876 -40.9499 0
      vertex -23.3651 -42.5009 75
    endloop
  endfacet
  facet normal -0.453991 -0.891006 0
    outer loop
      vertex -23.3651 -42.5009 0
      vertex -20.6503 -43.8841 0
      vertex -20.6503 -43.8841 75
    endloop
  endfacet
  facet normal -0.453991 -0.891006 0
    outer loop
      vertex -23.3651 -42.5009 75
      vertex -23.3651 -42.5009 0
      vertex -20.6503 -43.8841 75
    endloop
  endfacet
  facet normal -0.397148 -0.917755 0
    outer loop
      vertex -20.6503 -43.8841 0
      vertex -17.854 -45.0942 0
      vertex -17.854 -45.0942 75
    endloop
  endfacet
  facet normal -0.397148 -0.917755 0
    outer loop
      vertex -20.6503 -43.8841 75
      vertex -20.6503 -43.8841 0
      vertex -17.854 -45.0942 75
    endloop
  endfacet
  facet normal -0.338738 -0.940881 0
    outer loop
      vertex -17.854 -45.0942 0
      vertex -14.9873 -46.1262 0
      vertex -14.9873 -46.1262 75
    endloop
  endfacet
  facet normal -0.338738 -0.940881 0
    outer loop
      vertex -17.854 -45.0942 75
      vertex -17.854 -45.0942 0
      vertex -14.9873 -46.1262 75
    endloop
  endfacet
  facet normal -0.278991 -0.960294 0
    outer loop
      vertex -14.9873 -46.1262 0
      vertex -12.0615 -46.9763 0
      vertex -12.0615 -46.9763 75
    endloop
  endfacet
  facet normal -0.278991 -0.960294 0
    outer loop
      vertex -14.9873 -46.1262 75
      vertex -14.9873 -46.1262 0
      vertex -12.0615 -46.9763 75
    endloop
  endfacet
  facet normal -0.218143 -0.975917 0
    outer loop
      vertex -12.0615 -46.9763 0
      vertex -9.08799 -47.6409 0
      vertex -9.08799 -47.6409 75
    endloop
  endfacet
  facet normal -0.218143 -0.975917 0
    outer loop
      vertex -12.0615 -46.9763 75
      vertex -12.0615 -46.9763 0
      vertex -9.08799 -47.6409 75
    endloop
  endfacet
  facet normal -0.156434 -0.987688 0
    outer loop
      vertex -9.08799 -47.6409 0
      vertex -6.07866 -48.1176 0
      vertex -6.07866 -48.1176 75
    endloop
  endfacet
  facet normal -0.156434 -0.987688 0
    outer loop
      vertex -9.08799 -47.6409 75
      vertex -9.08799 -47.6409 0
      vertex -6.07866 -48.1176 75
    endloop
  endfacet
  facet normal -0.0941082 -0.995562 0
    outer loop
      vertex -6.07866 -48.1176 0
      vertex -3.04534 -48.4043 0
      vertex -3.04534 -48.4043 75
    endloop
  endfacet
  facet normal -0.0941082 -0.995562 0
    outer loop
      vertex -6.07866 -48.1176 75
      vertex -6.07866 -48.1176 0
      vertex -3.04534 -48.4043 75
    endloop
  endfacet
  facet normal -0.0314109 -0.999507 0
    outer loop
      vertex -3.04534 -48.4043 0
      vertex 0 -48.5 0
      vertex 0 -48.5 75
    endloop
  endfacet
  facet normal -0.0314109 -0.999507 0
    outer loop
      vertex -3.04534 -48.4043 75
      vertex -3.04534 -48.4043 0
      vertex 0 -48.5 75
    endloop
  endfacet
  facet normal 0.0314109 -0.999507 0
    outer loop
      vertex 0 -48.5 0
      vertex 3.04534 -48.4043 0
      vertex 3.04534 -48.4043 75
    endloop
  endfacet
  facet normal 0.0314109 -0.999507 0
    outer loop
      vertex 0 -48.5 75
      vertex 0 -48.5 0
      vertex 3.04534 -48.4043 75
    endloop
  endfacet
  facet normal 0.0941082 -0.995562 0
    outer loop
      vertex 3.04534 -48.4043 0
      vertex 6.07866 -48.1176 0
      vertex 6.07866 -48.1176 75
    endloop
  endfacet
  facet normal 0.0941082 -0.995562 0
    outer loop
      vertex 3.04534 -48.4043 75
      vertex 3.04534 -48.4043 0
      vertex 6.07866 -48.1176 75
    endloop
  endfacet
  facet normal 0.156434 -0.987688 0
    outer loop
      vertex 6.07866 -48.1176 0
      vertex 9.08799 -47.6409 0
      vertex 9.08799 -47.6409 75
    endloop
  endfacet
  facet normal 0.156434 -0.987688 0
    outer loop
      vertex 6.07866 -48.1176 75
      vertex 6.07866 -48.1176 0
      vertex 9.08799 -47.6409 75
    endloop
  endfacet
  facet normal 0.218143 -0.975917 0
    outer loop
      vertex 9.08799 -47.6409 0
      vertex 12.0615 -46.9763 0
      vertex 12.0615 -46.9763 75
    endloop
  endfacet
  facet normal 0.218143 -0.975917 0
    outer loop
      vertex 9.08799 -47.6409 75
      vertex 9.08799 -47.6409 0
      vertex 12.0615 -46.9763 75
    endloop
  endfacet
  facet normal 0.278991 -0.960294 0
    outer loop
      vertex 12.0615 -46.9763 0
      vertex 14.9873 -46.1262 0
      vertex 14.9873 -46.1262 75
    endloop
  endfacet
  facet normal 0.278991 -0.960294 0
    outer loop
      vertex 12.0615 -46.9763 75
      vertex 12.0615 -46.9763 0
      vertex 14.9873 -46.1262 75
    endloop
  endfacet
  facet normal 0.338738 -0.940881 0
    outer loop
      vertex 14.9873 -46.1262 0
      vertex 17.854 -45.0942 0
      vertex 17.854 -45.0942 75
    endloop
  endfacet
  facet normal 0.338738 -0.940881 0
    outer loop
      vertex 14.9873 -46.1262 75
      vertex 14.9873 -46.1262 0
      vertex 17.854 -45.0942 75
    endloop
  endfacet
  facet normal 0.397148 -0.917755 0
    outer loop
      vertex 17.854 -45.0942 0
      vertex 20.6503 -43.8841 0
      vertex 20.6503 -43.8841 75
    endloop
  endfacet
  facet normal 0.397148 -0.917755 0
    outer loop
      vertex 17.854 -45.0942 75
      vertex 17.854 -45.0942 0
      vertex 20.6503 -43.8841 75
    endloop
  endfacet
  facet normal 0.453991 -0.891006 0
    outer loop
      vertex 20.6503 -43.8841 0
      vertex 23.3651 -42.5009 0
      vertex 23.3651 -42.5009 75
    endloop
  endfacet
  facet normal 0.453991 -0.891006 0
    outer loop
      vertex 20.6503 -43.8841 75
      vertex 20.6503 -43.8841 0
      vertex 23.3651 -42.5009 75
    endloop
  endfacet
  facet normal 0.509041 -0.860742 0
    outer loop
      vertex 23.3651 -42.5009 0
      vertex 25.9876 -40.9499 0
      vertex 25.9876 -40.9499 75
    endloop
  endfacet
  facet normal 0.509041 -0.860742 0
    outer loop
      vertex 23.3651 -42.5009 75
      vertex 23.3651 -42.5009 0
      vertex 25.9876 -40.9499 75
    endloop
  endfacet
  facet normal 0.562083 -0.827081 0
    outer loop
      vertex 25.9876 -40.9499 0
      vertex 28.5076 -39.2373 0
      vertex 28.5076 -39.2373 75
    endloop
  endfacet
  facet normal 0.562083 -0.827081 0
    outer loop
      vertex 25.9876 -40.9499 75
      vertex 25.9876 -40.9499 0
      vertex 28.5076 -39.2373 75
    endloop
  endfacet
  facet normal 0.612907 -0.790155 0
    outer loop
      vertex 28.5076 -39.2373 0
      vertex 30.9151 -37.3699 0
      vertex 30.9151 -37.3699 75
    endloop
  endfacet
  facet normal 0.612907 -0.790155 0
    outer loop
      vertex 28.5076 -39.2373 75
      vertex 28.5076 -39.2373 0
      vertex 30.9151 -37.3699 75
    endloop
  endfacet
  facet normal 0.661312 -0.750111 0
    outer loop
      vertex 30.9151 -37.3699 0
      vertex 33.2005 -35.355 0
      vertex 33.2005 -35.355 75
    endloop
  endfacet
  facet normal 0.661312 -0.750111 0
    outer loop
      vertex 30.9151 -37.3699 75
      vertex 30.9151 -37.3699 0
      vertex 33.2005 -35.355 75
    endloop
  endfacet
  facet normal 0.707107 -0.707107 0
    outer loop
      vertex 33.2005 -35.355 0
      vertex 35.355 -33.2005 0
      vertex 35.355 -33.2005 75
    endloop
  endfacet
  facet normal 0.707107 -0.707107 0
    outer loop
      vertex 33.2005 -35.355 75
      vertex 33.2005 -35.355 0
      vertex 35.355 -33.2005 75
    endloop
  endfacet
  facet normal 0.750111 -0.661312 0
    outer loop
      vertex 35.355 -33.2005 0
      vertex 37.3699 -30.9151 0
      vertex 37.3699 -30.9151 75
    endloop
  endfacet
  facet normal 0.750111 -0.661312 0
    outer loop
      vertex 35.355 -33.2005 75
      vertex 35.355 -33.2005 0
      vertex 37.3699 -30.9151 75
    endloop
  endfacet
  facet normal 0.790155 -0.612907 0
    outer loop
      vertex 37.3699 -30.9151 0
      vertex 39.2373 -28.5076 0
      vertex 39.2373 -28.5076 75
    endloop
  endfacet
  facet normal 0.790155 -0.612907 0
    outer loop
      vertex 37.3699 -30.9151 75
      vertex 37.3699 -30.9151 0
      vertex 39.2373 -28.5076 75
    endloop
  endfacet
  facet normal 0.827081 -0.562083 0
    outer loop
      vertex 39.2373 -28.5076 0
      vertex 40.9499 -25.9876 0
      vertex 40.9499 -25.9876 75
    endloop
  endfacet
  facet normal 0.827081 -0.562083 0
    outer loop
      vertex 39.2373 -28.5076 75
      vertex 39.2373 -28.5076 0
      vertex 40.9499 -25.9876 75
    endloop
  endfacet
  facet normal 0.860742 -0.509041 0
    outer loop
      vertex 40.9499 -25.9876 0
      vertex 42.5009 -23.3651 0
      vertex 42.5009 -23.3651 75
    endloop
  endfacet
  facet normal 0.860742 -0.509041 0
    outer loop
      vertex 40.9499 -25.9876 75
      vertex 40.9499 -25.9876 0
      vertex 42.5009 -23.3651 75
    endloop
  endfacet
  facet normal 0.891006 -0.453991 0
    outer loop
      vertex 42.5009 -23.3651 0
      vertex 43.8841 -20.6503 0
      vertex 43.8841 -20.6503 75
    endloop
  endfacet
  facet normal 0.891006 -0.453991 0
    outer loop
      vertex 42.5009 -23.3651 75
      vertex 42.5009 -23.3651 0
      vertex 43.8841 -20.6503 75
    endloop
  endfacet
  facet normal 0.917755 -0.397148 0
    outer loop
      vertex 43.8841 -20.6503 0
      vertex 45.0942 -17.854 0
      vertex 45.0942 -17.854 75
    endloop
  endfacet
  facet normal 0.917755 -0.397148 0
    outer loop
      vertex 43.8841 -20.6503 75
      vertex 43.8841 -20.6503 0
      vertex 45.0942 -17.854 75
    endloop
  endfacet
  facet normal 0.940881 -0.338738 0
    outer loop
      vertex 45.0942 -17.854 0
      vertex 46.1262 -14.9873 0
      vertex 46.1262 -14.9873 75
    endloop
  endfacet
  facet normal 0.940881 -0.338738 0
    outer loop
      vertex 45.0942 -17.854 75
      vertex 45.0942 -17.854 0
      vertex 46.1262 -14.9873 75
    endloop
  endfacet
  facet normal 0.960294 -0.278991 0
    outer loop
      vertex 46.1262 -14.9873 0
      vertex 46.9763 -12.0615 0
      vertex 46.9763 -12.0615 75
    endloop
  endfacet
  facet normal 0.960294 -0.278991 0
    outer loop
      vertex 46.1262 -14.9873 75
      vertex 46.1262 -14.9873 0
      vertex 46.9763 -12.0615 75
    endloop
  endfacet
  facet normal 0.975917 -0.218143 0
    outer loop
      vertex 46.9763 -12.0615 0
      vertex 47.6409 -9.08799 0
      vertex 47.6409 -9.08799 75
    endloop
  endfacet
  facet normal 0.975917 -0.218143 0
    outer loop
      vertex 46.9763 -12.0615 75
      vertex 46.9763 -12.0615 0
      vertex 47.6409 -9.08799 75
    endloop
  endfacet
  facet normal 0.987688 -0.156434 0
    outer loop
      vertex 47.6409 -9.08799 0
      vertex 48.1176 -6.07866 0
      vertex 48.1176 -6.07866 75
    endloop
  endfacet
  facet normal 0.987688 -0.156434 0
    outer loop
      vertex 47.6409 -9.08799 75
      vertex 47.6409 -9.08799 0
      vertex 48.1176 -6.07866 75
    endloop
  endfacet
  facet normal 0.995562 -0.0941082 0
    outer loop
      vertex 48.1176 -6.07866 0
      vertex 48.4043 -3.04534 0
      vertex 48.4043 -3.04534 75
    endloop
  endfacet
  facet normal 0.995562 -0.0941082 0
    outer loop
      vertex 48.1176 -6.07866 75
      vertex 48.1176 -6.07866 0
      vertex 48.4043 -3.04534 75
    endloop
  endfacet
  facet normal 0.999507 -0.0314109 0
    outer loop
      vertex 48.4043 -3.04534 0
      vertex 48.5 0 0
      vertex 48.5 0 75
    endloop
  endfacet
  facet normal 0.999507 -0.0314109 0
    outer loop
      vertex 48.4043 -3.04534 75
      vertex 48.4043 -3.04534 0
      vertex 48.5 0 75
    endloop
  endfacet
  facet normal 0.987688 0.156434 0
    outer loop
      vertex 47.6409 9.08799 0
      vertex 47.6409 9.08799 75
      vertex 48.1176 6.07866 75
    endloop
  endfacet
  facet normal 0.987688 0.156434 0
    outer loop
      vertex 48.1176 6.07866 0
      vertex 47.6409 9.08799 0
      vertex 48.1176 6.07866 75
    endloop
  endfacet
  facet normal 0.975917 0.218143 0
    outer loop
      vertex 46.9763 12.0615 0
      vertex 46.9763 12.0615 75
      vertex 47.6409 9.08799 75
    endloop
  endfacet
  facet normal 0.975917 0.218143 0
    outer loop
      vertex 47.6409 9.08799 0
      vertex 46.9763 12.0615 0
      vertex 47.6409 9.08799 75
    endloop
  endfacet
  facet normal 0.960294 0.278991 0
    outer loop
      vertex 46.1262 14.9873 0
      vertex 46.1262 14.9873 75
      vertex 46.9763 12.0615 75
    endloop
  endfacet
  facet normal 0.960294 0.278991 0
    outer loop
      vertex 46.9763 12.0615 0
      vertex 46.1262 14.9873 0
      vertex 46.9763 12.0615 75
    endloop
  endfacet
  facet normal 0.940881 0.338738 0
    outer loop
      vertex 45.0942 17.854 0
      vertex 45.0942 17.854 75
      vertex 46.1262 14.9873 75
    endloop
  endfacet
  facet normal 0.940881 0.338738 0
    outer loop
      vertex 46.1262 14.9873 0
      vertex 45.0942 17.854 0
      vertex 46.1262 14.9873 75
    endloop
  endfacet
  facet normal 0.917755 0.397148 0
    outer loop
      vertex 43.8841 20.6503 0
      vertex 43.8841 20.6503 75
      vertex 45.0942 17.854 75
    endloop
  endfacet
  facet normal 0.917755 0.397148 0
    outer loop
      vertex 45.0942 17.854 0
      vertex 43.8841 20.6503 0
      vertex 45.0942 17.854 75
    endloop
  endfacet
  facet normal 0.891006 0.453991 0
    outer loop
      vertex 42.5009 23.3651 0
      vertex 42.5009 23.3651 75
      vertex 43.8841 20.6503 75
    endloop
  endfacet
  facet normal 0.891006 0.453991 0
    outer loop
      vertex 43.8841 20.6503 0
      vertex 42.5009 23.3651 0
      vertex 43.8841 20.6503 75
    endloop
  endfacet
  facet normal 0.860742 0.509041 0
    outer loop
      vertex 40.9499 25.9876 0
      vertex 40.9499 25.9876 75
      vertex 42.5009 23.3651 75
    endloop
  endfacet
  facet normal 0.860742 0.509041 0
    outer loop
      vertex 42.5009 23.3651 0
      vertex 40.9499 25.9876 0
      vertex 42.5009 23.3651 75
    endloop
  endfacet
  facet normal 0.827081 0.562083 0
    outer loop
      vertex 39.2373 28.5076 0
      vertex 39.2373 28.5076 75
      vertex 40.9499 25.9876 75
    endloop
  endfacet
  facet normal 0.827081 0.562083 0
    outer loop
      vertex 40.9499 25.9876 0
      vertex 39.2373 28.5076 0
      vertex 40.9499 25.9876 75
    endloop
  endfacet
  facet normal 0.790155 0.612907 0
    outer loop
      vertex 37.3699 30.9151 0
      vertex 37.3699 30.9151 75
      vertex 39.2373 28.5076 75
    endloop
  endfacet
  facet normal 0.790155 0.612907 0
    outer loop
      vertex 39.2373 28.5076 0
      vertex 37.3699 30.9151 0
      vertex 39.2373 28.5076 75
    endloop
  endfacet
  facet normal 0.750111 0.661312 0
    outer loop
      vertex 35.355 33.2005 0
      vertex 35.355 33.2005 75
      vertex 37.3699 30.9151 75
    endloop
  endfacet
  facet normal 0.750111 0.661312 0
    outer loop
      vertex 37.3699 30.9151 0
      vertex 35.355 33.2005 0
      vertex 37.3699 30.9151 75
    endloop
  endfacet
  facet normal 0.707107 0.707107 0
    outer loop
      vertex 33.2005 35.355 75
      vertex 35.355 33.2005 75
      vertex 33.2005 35.355 0
    endloop
  endfacet
  facet normal 0.707107 0.707107 0
    outer loop
      vertex 33.2005 35.355 0
      vertex 35.355 33.2005 75
      vertex 35.355 33.2005 0
    endloop
  endfacet
  facet normal 0.661312 0.750111 0
    outer loop
      vertex 30.9151 37.3699 75
      vertex 33.2005 35.355 75
      vertex 30.9151 37.3699 0
    endloop
  endfacet
  facet normal 0.661312 0.750111 0
    outer loop
      vertex 30.9151 37.3699 0
      vertex 33.2005 35.355 75
      vertex 33.2005 35.355 0
    endloop
  endfacet
  facet normal 0.612907 0.790155 0
    outer loop
      vertex 28.5076 39.2373 75
      vertex 30.9151 37.3699 75
      vertex 28.5076 39.2373 0
    endloop
  endfacet
  facet normal 0.612907 0.790155 0
    outer loop
      vertex 28.5076 39.2373 0
      vertex 30.9151 37.3699 75
      vertex 30.9151 37.3699 0
    endloop
  endfacet
  facet normal 0.562083 0.827081 0
    outer loop
      vertex 25.9876 40.9499 75
      vertex 28.5076 39.2373 75
      vertex 25.9876 40.9499 0
    endloop
  endfacet
  facet normal 0.562083 0.827081 0
    outer loop
      vertex 25.9876 40.9499 0
      vertex 28.5076 39.2373 75
      vertex 28.5076 39.2373 0
    endloop
  endfacet
  facet normal 0.509041 0.860742 0
    outer loop
      vertex 23.3651 42.5009 75
      vertex 25.9876 40.9499 75
      vertex 23.3651 42.5009 0
    endloop
  endfacet
  facet normal 0.509041 0.860742 0
    outer loop
      vertex 23.3651 42.5009 0
      vertex 25.9876 40.9499 75
      vertex 25.9876 40.9499 0
    endloop
  endfacet
  facet normal 0.453991 0.891006 0
    outer loop
      vertex 20.6503 43.8841 75
      vertex 23.3651 42.5009 75
      vertex 20.6503 43.8841 0
    endloop
  endfacet
  facet normal 0.453991 0.891006 0
    outer loop
      vertex 20.6503 43.8841 0
      vertex 23.3651 42.5009 75
      vertex 23.3651 42.5009 0
    endloop
  endfacet
  facet normal 0.397148 0.917755 0
    outer loop
      vertex 17.854 45.0942 75
      vertex 20.6503 43.8841 75
      vertex 17.854 45.0942 0
    endloop
  endfacet
  facet normal 0.397148 0.917755 0
    outer loop
      vertex 17.854 45.0942 0
      vertex 20.6503 43.8841 75
      vertex 20.6503 43.8841 0
    endloop
  endfacet
  facet normal 0.338738 0.940881 0
    outer loop
      vertex 14.9873 46.1262 75
      vertex 17.854 45.0942 75
      vertex 14.9873 46.1262 0
    endloop
  endfacet
  facet normal 0.338738 0.940881 0
    outer loop
      vertex 14.9873 46.1262 0
      vertex 17.854 45.0942 75
      vertex 17.854 45.0942 0
    endloop
  endfacet
  facet normal 0.278991 0.960294 0
    outer loop
      vertex 12.0615 46.9763 75
      vertex 14.9873 46.1262 75
      vertex 12.0615 46.9763 0
    endloop
  endfacet
  facet normal 0.278991 0.960294 0
    outer loop
      vertex 12.0615 46.9763 0
      vertex 14.9873 46.1262 75
      vertex 14.9873 46.1262 0
    endloop
  endfacet
  facet normal 0.218143 0.975917 0
    outer loop
      vertex 9.08799 47.6409 75
      vertex 12.0615 46.9763 75
      vertex 9.08799 47.6409 0
    endloop
  endfacet
  facet normal 0.218143 0.975917 0
    outer loop
      vertex 9.08799 47.6409 0
      vertex 12.0615 46.9763 75
      vertex 12.0615 46.9763 0
    endloop
  endfacet
  facet normal 0.156434 0.987688 0
    outer loop
      vertex 6.07866 48.1176 75
      vertex 9.08799 47.6409 75
      vertex 6.07866 48.1176 0
    endloop
  endfacet
  facet normal 0.156434 0.987688 0
    outer loop
      vertex 6.07866 48.1176 0
      vertex 9.08799 47.6409 75
      vertex 9.08799 47.6409 0
    endloop
  endfacet
  facet normal 0.0941082 0.995562 0
    outer loop
      vertex 3.04534 48.4043 75
      vertex 6.07866 48.1176 75
      vertex 3.04534 48.4043 0
    endloop
  endfacet
  facet normal 0.0941082 0.995562 0
    outer loop
      vertex 3.04534 48.4043 0
      vertex 6.07866 48.1176 75
      vertex 6.07866 48.1176 0
    endloop
  endfacet
  facet normal 0.0314109 0.999507 0
    outer loop
      vertex 0 48.5 75
      vertex 3.04534 48.4043 75
      vertex 0 48.5 0
    endloop
  endfacet
  facet normal 0.0314109 0.999507 0
    outer loop
      vertex 0 48.5 0
      vertex 3.04534 48.4043 75
      vertex 3.04534 48.4043 0
    endloop
  endfacet
  facet normal -0.0314109 0.999507 0
    outer loop
      vertex -3.04534 48.4043 75
      vertex 0 48.5 75
      vertex -3.04534 48.4043 0
    endloop
  endfacet
  facet normal -0.0314109 0.999507 0
    outer loop
      vertex -3.04534 48.4043 0
      vertex 0 48.5 75
      vertex 0 48.5 0
    endloop
  endfacet
  facet normal -0.0941082 0.995562 0
    outer loop
      vertex -6.07866 48.1176 75
      vertex -3.04534 48.4043 75
      vertex -6.07866 48.1176 0
    endloop
  endfacet
  facet normal -0.0941082 0.995562 0
    outer loop
      vertex -6.07866 48.1176 0
      vertex -3.04534 48.4043 75
      vertex -3.04534 48.4043 0
    endloop
  endfacet
  facet normal -0.156434 0.987688 0
    outer loop
      vertex -9.08799 47.6409 75
      vertex -6.07866 48.1176 75
      vertex -9.08799 47.6409 0
    endloop
  endfacet
  facet normal -0.156434 0.987688 0
    outer loop
      vertex -9.08799 47.6409 0
      vertex -6.07866 48.1176 75
      vertex -6.07866 48.1176 0
    endloop
  endfacet
  facet normal -0.218143 0.975917 0
    outer loop
      vertex -12.0615 46.9763 75
      vertex -9.08799 47.6409 75
      vertex -12.0615 46.9763 0
    endloop
  endfacet
  facet normal -0.218143 0.975917 0
    outer loop
      vertex -12.0615 46.9763 0
      vertex -9.08799 47.6409 75
      vertex -9.08799 47.6409 0
    endloop
  endfacet
  facet normal -0.278991 0.960294 0
    outer loop
      vertex -14.9873 46.1262 75
      vertex -12.0615 46.9763 75
      vertex -14.9873 46.1262 0
    endloop
  endfacet
  facet normal -0.278991 0.960294 0
    outer loop
      vertex -14.9873 46.1262 0
      vertex -12.0615 46.9763 75
      vertex -12.0615 46.9763 0
    endloop
  endfacet
  facet normal -0.338738 0.940881 0
    outer loop
      vertex -17.854 45.0942 75
      vertex -14.9873 46.1262 75
      vertex -17.854 45.0942 0
    endloop
  endfacet
  facet normal -0.338738 0.940881 0
    outer loop
      vertex -17.854 45.0942 0
      vertex -14.9873 46.1262 75
      vertex -14.9873 46.1262 0
    endloop
  endfacet
  facet normal -0.397148 0.917755 0
    outer loop
      vertex -20.6503 43.8841 75
      vertex -17.854 45.0942 75
      vertex -20.6503 43.8841 0
    endloop
  endfacet
  facet normal -0.397148 0.917755 0
    outer loop
      vertex -20.6503 43.8841 0
      vertex -17.854 45.0942 75
      vertex -17.854 45.0942 0
    endloop
  endfacet
  facet normal -0.453991 0.891006 0
    outer loop
      vertex -23.3651 42.5009 75
      vertex -20.6503 43.8841 75
      vertex -23.3651 42.5009 0
    endloop
  endfacet
  facet normal -0.453991 0.891006 0
    outer loop
      vertex -23.3651 42.5009 0
      vertex -20.6503 43.8841 75
      vertex -20.6503 43.8841 0
    endloop
  endfacet
  facet normal -0.509041 0.860742 0
    outer loop
      vertex -25.9876 40.9499 75
      vertex -23.3651 42.5009 75
      vertex -25.9876 40.9499 0
    endloop
  endfacet
  facet normal -0.509041 0.860742 0
    outer loop
      vertex -25.9876 40.9499 0
      vertex -23.3651 42.5009 75
      vertex -23.3651 42.5009 0
    endloop
  endfacet
  facet normal -0.562083 0.827081 0
    outer loop
      vertex -28.5076 39.2373 75
      vertex -25.9876 40.9499 75
      vertex -28.5076 39.2373 0
    endloop
  endfacet
  facet normal -0.562083 0.827081 0
    outer loop
      vertex -28.5076 39.2373 0
      vertex -25.9876 40.9499 75
      vertex -25.9876 40.9499 0
    endloop
  endfacet
  facet normal -0.612907 0.790155 0
    outer loop
      vertex -30.9151 37.3699 75
      vertex -28.5076 39.2373 75
      vertex -30.9151 37.3699 0
    endloop
  endfacet
  facet normal -0.612907 0.790155 0
    outer loop
      vertex -30.9151 37.3699 0
      vertex -28.5076 39.2373 75
      vertex -28.5076 39.2373 0
    endloop
  endfacet
  facet normal -0.661312 0.750111 0
    outer loop
      vertex -33.2005 35.355 75
      vertex -30.9151 37.3699 75
      vertex -33.2005 35.355 0
    endloop
  endfacet
  facet normal -0.661312 0.750111 0
    outer loop
      vertex -33.2005 35.355 0
      vertex -30.9151 37.3699 75
      vertex -30.9151 37.3699 0
    endloop
  endfacet
  facet normal -0.707107 0.707107 0
    outer loop
      vertex -35.355 33.2005 75
      vertex -33.2005 35.355 75
      vertex -35.355 33.2005 0
    endloop
  endfacet
  facet normal -0.707107 0.707107 0
    outer loop
      vertex -35.355 33.2005 0
      vertex -33.2005 35.355 75
      vertex -33.2005 35.355 0
    endloop
  endfacet
  facet normal -0.750111 0.661312 0
    outer loop
      vertex -37.3699 30.9151 75
      vertex -35.355 33.2005 75
      vertex -37.3699 30.9151 0
    endloop
  endfacet
  facet normal -0.750111 0.661312 0
    outer loop
      vertex -37.3699 30.9151 0
      vertex -35.355 33.2005 75
      vertex -35.355 33.2005 0
    endloop
  endfacet
  facet normal -0.790155 0.612907 0
    outer loop
      vertex -39.2373 28.5076 75
      vertex -37.3699 30.9151 75
      vertex -39.2373 28.5076 0
    endloop
  endfacet
  facet normal -0.790155 0.612907 0
    outer loop
      vertex -39.2373 28.5076 0
      vertex -37.3699 30.9151 75
      vertex -37.3699 30.9151 0
    endloop
  endfacet
  facet normal -0.827081 0.562083 0
    outer loop
      vertex -40.9499 25.9876 75
      vertex -39.2373 28.5076 75
      vertex -40.9499 25.9876 0
    endloop
  endfacet
  facet normal -0.827081 0.562083 0
    outer loop
      vertex -40.9499 25.9876 0
      vertex -39.2373 28.5076 75
      vertex -39.2373 28.5076 0
    endloop
  endfacet
  facet normal -0.860742 0.509041 0
    outer loop
      vertex -42.5009 23.3651 75
      vertex -40.9499 25.9876 75
      vertex -42.5009 23.3651 0
    endloop
  endfacet
  facet normal -0.860742 0.509041 0
    outer loop
      vertex -42.5009 23.3651 0
      vertex -40.9499 25.9876 75
      vertex -40.9499 25.9876 0
    endloop
  endfacet
  facet normal -0.891006 0.453991 0
    outer loop
      vertex -43.8841 20.6503 75
      vertex -42.5009 23.3651 75
      vertex -43.8841 20.6503 0
    endloop
  endfacet
  facet normal -0.891006 0.453991 0
    outer loop
      vertex -43.8841 20.6503 0
      vertex -42.5009 23.3651 75
      vertex -42.5009 23.3651 0
    endloop
  endfacet
  facet normal -0.917755 0.397148 0
    outer loop
      vertex -45.0942 17.854 75
      vertex -43.8841 20.6503 75
      vertex -45.0942 17.854 0
    endloop
  endfacet
  facet normal -0.917755 0.397148 0
    outer loop
      vertex -45.0942 17.854 0
      vertex -43.8841 20.6503 75
      vertex -43.8841 20.6503 0
    endloop
  endfacet
  facet normal -0.940881 0.338738 0
    outer loop
      vertex -46.1262 14.9873 75
      vertex -45.0942 17.854 75
      vertex -46.1262 14.9873 0
    endloop
  endfacet
  facet normal -0.940881 0.338738 0
    outer loop
      vertex -46.1262 14.9873 0
      vertex -45.0942 17.854 75
      vertex -45.0942 17.854 0
    endloop
  endfacet
  facet normal -0.960294 0.278991 0
    outer loop
      vertex -46.9763 12.0615 75
      vertex -46.1262 14.9873 75
      vertex -46.9763 12.0615 0
    endloop
  endfacet
  facet normal -0.960294 0.278991 0
    outer loop
      vertex -46.9763 12.0615 0
      vertex -46.1262 14.9873 75
      vertex -46.1262 14.9873 0
    endloop
  endfacet
  facet normal -0.975917 0.218143 0
    outer loop
      vertex -47.6409 9.08799 75
      vertex -46.9763 12.0615 75
      vertex -47.6409 9.08799 0
    endloop
  endfacet
  facet normal -0.975917 0.218143 0
    outer loop
      vertex -47.6409 9.08799 0
      vertex -46.9763 12.0615 75
      vertex -46.9763 12.0615 0
    endloop
  endfacet
  facet normal -0.987688 0.156434 0
    outer loop
      vertex -48.1176 6.07866 75
      vertex -47.6409 9.08799 75
      vertex -48.1176 6.07866 0
    endloop
  endfacet
  facet normal -0.987688 0.156434 0
    outer loop
      vertex -48.1176 6.07866 0
      vertex -47.6409 9.08799 75
      vertex -47.6409 9.08799 0
    endloop
  endfacet
  facet normal -0.995562 0.0941082 0
    outer loop
      vertex -48.4043 3.04534 75
      vertex -48.1176 6.07866 75
      vertex -48.4043 3.04534 0
    endloop
  endfacet
  facet normal -0.995562 0.0941082 0
    outer loop
      vertex -48.4043 3.04534 0
      vertex -48.1176 6.07866 75
      vertex -48.1176 6.07866 0
    endloop
  endfacet
  facet normal 0 0 1
    outer loop
      vertex -48.5 0 75
      vertex -48.4043 -3.04534 75
      vertex -48.1176 -6.07866 75
    endloop
  endfacet
  facet normal 0 0 1
    outer loop
      vertex -46.9763 -12.0615 75
      vertex -48.5 0 75
      vertex -47.6409 -9.08799 75
    endloop
  endfacet
  facet normal 0 0 1
    outer loop
      vertex -47.6409 -9.08799 75
      vertex -48.5 0 75
      vertex -48.1176 -6.07866 75
    endloop
  endfacet
  facet normal 0 0 1
    outer loop
      vertex -46.1262 -14.9873 75
      vertex -48.5 0 75
      vertex -46.9763 -12.0615 75
    endloop
  endfacet
  facet normal 0 0 1
    outer loop
      vertex -45.0942 -17.854 75
      vertex -48.5 0 75
      vertex -46.1262 -14.9873 75
    endloop
  endfacet
  facet normal 0 0 1
    outer loop
      vertex -43.8841 -20.6503 75
      vertex -48.5 0 75
      vertex -45.0942 -17.854 75
    endloop
  endfacet
  facet normal 0 0 1
    outer loop
      vertex -42.5009 -23.3651 75
      vertex -48.5 0 75
      vertex -43.8841 -20.6503 75
    endloop
  endfacet
  facet normal 0 0 1
    outer loop
      vertex -40.9499 -25.9876 75
      vertex -48.5 0 75
      vertex -42.5009 -23.3651 75
    endloop
  endfacet
  facet normal 0 0 1
    outer loop
      vertex -39.2373 -28.5076 75
      vertex -48.5 0 75
      vertex -40.9499 -25.9876 75
    endloop
  endfacet
  facet normal 0 0 1
    outer loop
      vertex -37.3699 -30.9151 75
      vertex -48.5 0 75
      vertex -39.2373 -28.5076 75
    endloop
  endfacet
  facet normal 0 0 1
    outer loop
      vertex -35.355 -33.2005 75
      vertex -48.5 0 75
      vertex -37.3699 -30.9151 75
    endloop
  endfacet
  facet normal 0 0 1
    outer loop
      vertex -33.2005 -35.355 75
      vertex -48.5 0 75
      vertex -35.355 -33.2005 75
    endloop
  endfacet
  facet normal 0 0 1
    outer loop
      vertex -30.9151 -37.3699 75
      vertex -48.5 0 75
      vertex -33.2005 -35.355 75
    endloop
  endfacet
  facet normal 0 0 1
    outer loop
      vertex -28.5076 -39.2373 75
      vertex -48.5 0 75
      vertex -30.9151 -37.3699 75
    endloop
  endfacet
  facet normal 0 0 1
    outer loop
      vertex -25.9876 -40.9499 75
      vertex -48.5 0 75
      vertex -28.5076 -39.2373 75
    endloop
  endfacet
  facet normal 0 0 1
    outer loop
      vertex -23.3651 -42.5009 75
      vertex -48.5 0 75
      vertex -25.9876 -40.9499 75
    endloop
  endfacet
  facet normal 0 0 1
    outer loop
      vertex -20.6503 -43.8841 75
      vertex -48.5 0 75
      vertex -23.3651 -42.5009 75
    endloop
  endfacet
  facet normal 0 0 1
    outer loop
      vertex -17.854 -45.0942 75
      vertex -48.5 0 75
      vertex -20.6503 -43.8841 75
    endloop
  endfacet
  facet normal 0 0 1
    outer loop
      vertex -14.9873 -46.1262 75
      vertex -48.5 0 75
      vertex -17.854 -45.0942 75
    endloop
  endfacet
  facet normal 0 0 1
    outer loop
      vertex -12.0615 -46.9763 75
      vertex -48.5 0 75
      vertex -14.9873 -46.1262 75
    endloop
  endfacet
  facet normal 0 0 1
    outer loop
      vertex -9.08799 -47.6409 75
      vertex -48.5 0 75
      vertex -12.0615 -46.9763 75
    endloop
  endfacet
  facet normal 0 0 1
    outer loop
      vertex -6.07866 -48.1176 75
      vertex -48.5 0 75
      vertex -9.08799 -47.6409 75
    endloop
  endfacet
  facet normal 0 0 1
    outer loop
      vertex -3.04534 -48.4043 75
      vertex -48.5 0 75
      vertex -6.07866 -48.1176 75
    endloop
  endfacet
  facet normal 0 0 1
    outer loop
      vertex 0 -48.5 75
      vertex -48.5 0 75
      vertex -3.04534 -48.4043 75
    endloop
  endfacet
  facet normal 0 0 1
    outer loop
      vertex 3.04534 -48.4043 75
      vertex -48.5 0 75
      vertex 0 -48.5 75
    endloop
  endfacet
  facet normal 0 0 1
    outer loop
      vertex 6.07866 -48.1176 75
      vertex -48.5 0 75
      vertex 3.04534 -48.4043 75
    endloop
  endfacet
  facet normal 0 0 1
    outer loop
      vertex 9.08799 -47.6409 75
      vertex -48.5 0 75
      vertex 6.07866 -48.1176 75
    endloop
  endfacet
  facet normal 0 0 1
    outer loop
      vertex 12.0615 -46.9763 75
      vertex -48.5 0 75
      vertex 9.08799 -47.6409 75
    endloop
  endfacet
  facet normal 0 0 1
    outer loop
      vertex 14.9873 -46.1262 75
      vertex -48.5 0 75
      vertex 12.0615 -46.9763 75
    endloop
  endfacet
  facet normal 0 0 1
    outer loop
      vertex 17.854 -45.0942 75
      vertex -48.5 0 75
      vertex 14.9873 -46.1262 75
    endloop
  endfacet
  facet normal 0 0 1
    outer loop
      vertex 20.6503 -43.8841 75
      vertex -48.5 0 75
      vertex 17.854 -45.0942 75
    endloop
  endfacet
  facet normal 0 0 1
    outer loop
      vertex 23.3651 -42.5009 75
      vertex -48.5 0 75
      vertex 20.6503 -43.8841 75
    endloop
  endfacet
  facet normal 0 0 1
    outer loop
      vertex 25.9876 -40.9499 75
      vertex -48.5 0 75
      vertex 23.3651 -42.5009 75
    endloop
  endfacet
  facet normal 0 0 1
    outer loop
      vertex 28.5076 -39.2373 75
      vertex -48.5 0 75
      vertex 25.9876 -40.9499 75
    endloop
  endfacet
  facet normal 0 0 1
    outer loop
      vertex 30.9151 -37.3699 75
      vertex -48.5 0 75
      vertex 28.5076 -39.2373 75
    endloop
  endfacet
  facet normal 0 0 1
    outer loop
      vertex 33.2005 -35.355 75
      vertex -48.5 0 75
      vertex 30.9151 -37.3699 75
    endloop
  endfacet
  facet normal 0 0 1
    outer loop
      vertex 35.355 -33.2005 75
      vertex -48.5 0 75
      vertex 33.2005 -35.355 75
    endloop
  endfacet
  facet normal 0 0 1
    outer loop
      vertex 37.3699 -30.9151 75
      vertex -48.5 0 75
      vertex 35.355 -33.2005 75
    endloop
  endfacet
  facet normal 0 0 1
    outer loop
      vertex 39.2373 -28.5076 75
      vertex -48.5 0 75
      vertex 37.3699 -30.9151 75
    endloop
  endfacet
  facet normal 0 0 1
    outer loop
      vertex 40.9499 -25.9876 75
      vertex -48.5 0 75
      vertex 39.2373 -28.5076 75
    endloop
  endfacet
  facet normal 0 0 1
    outer loop
      vertex 42.5009 -23.3651 75
      vertex -48.5 0 75
      vertex 40.9499 -25.9876 75
    endloop
  endfacet
  facet normal 0 0 1
    outer loop
      vertex 43.8841 -20.6503 75
      vertex -48.5 0 75
      vertex 42.5009 -23.3651 75
    endloop
  endfacet
  facet normal 0 0 1
    outer loop
      vertex 45.0942 -17.854 75
      vertex -48.5 0 75
      vertex 43.8841 -20.6503 75
    endloop
  endfacet
  facet normal 0 0 1
    outer loop
      vertex 46.1262 -14.9873 75
      vertex -48.5 0 75
      vertex 45.0942 -17.854 75
    endloop
  endfacet
  facet normal 0 0 1
    outer loop
      vertex 46.9763 -12.0615 75
      vertex -48.5 0 75
      vertex 46.1262 -14.9873 75
    endloop
  endfacet
  facet normal 0 0 1
    outer loop
      vertex 47.6409 -9.08799 75
      vertex -48.5 0 75
      vertex 46.9763 -12.0615 75
    endloop
  endfacet
  facet normal 0 0 1
    outer loop
      vertex 48.1176 -6.07866 75
      vertex -48.5 0 75
      vertex 47.6409 -9.08799 75
    endloop
  endfacet
  facet normal 0 0 1
    outer loop
      vertex 48.4043 -3.04534 75
      vertex -48.5 0 75
      vertex 48.1176 -6.07866 75
    endloop
  endfacet
  facet normal 0 0 1
    outer loop
      vertex 48.5 0 75
      vertex -48.5 0 75
      vertex 48.4043 -3.04534 75
    endloop
  endfacet
  facet normal 0 0 1
    outer loop
      vertex 48.4043 3.04534 75
      vertex -48.5 0 75
      vertex 48.5 0 75
    endloop
  endfacet
  facet normal 0 0 1
    outer loop
      vertex 48.1176 6.07866 75
      vertex -48.5 0 75
      vertex 48.4043 3.04534 75
    endloop
  endfacet
  facet normal 0 0 1
    outer loop
      vertex 47.6409 9.08799 75
      vertex -48.5 0 75
      vertex 48.1176 6.07866 75
    endloop
  endfacet
  facet normal 0 0 1
    outer loop
      vertex 46.9763 12.0615 75
      vertex -48.5 0 75
      vertex 47.6409 9.08799 75
    endloop
  endfacet
  facet normal 0 0 1
    outer loop
      vertex 46.1262 14.9873 75
      vertex -48.5 0 75
      vertex 46.9763 12.0615 75
    endloop
  endfacet
  facet normal 0 0 1
    outer loop
      vertex 45.0942 17.854 75
      vertex -48.5 0 75
      vertex 46.1262 14.9873 75
    endloop
  endfacet
  facet normal 0 0 1
    outer loop
      vertex 43.8841 20.6503 75
      vertex -48.5 0 75
      vertex 45.0942 17.854 75
    endloop
  endfacet
  facet normal 0 0 1
    outer loop
      vertex 42.5009 23.3651 75
      vertex -48.5 0 75
      vertex 43.8841 20.6503 75
    endloop
  endfacet
  facet normal 0 0 1
    outer loop
      vertex 40.9499 25.9876 75
      vertex -48.5 0 75
      vertex 42.5009 23.3651 75
    endloop
  endfacet
  facet normal 0 0 1
    outer loop
      vertex 39.2373 28.5076 75
      vertex -48.5 0 75
      vertex 40.9499 25.9876 75
    endloop
  endfacet
  facet normal 0 0 1
    outer loop
      vertex 37.3699 30.9151 75
      vertex -48.5 0 75
      vertex 39.2373 28.5076 75
    endloop
  endfacet
  facet normal 0 0 1
    outer loop
      vertex 35.355 33.2005 75
      vertex -48.5 0 75
      vertex 37.3699 30.9151 75
    endloop
  endfacet
  facet normal 0 0 1
    outer loop
      vertex 33.2005 35.355 75
      vertex -48.5 0 75
      vertex 35.355 33.2005 75
    endloop
  endfacet
  facet normal 0 0 1
    outer loop
      vertex 30.9151 37.3699 75
      vertex -48.5 0 75
      vertex 33.2005 35.355 75
    endloop
  endfacet
  facet normal 0 0 1
    outer loop
      vertex 28.5076 39.2373 75
      vertex -48.5 0 75
      vertex 30.9151 37.3699 75
    endloop
  endfacet
  facet normal 0 0 1
    outer loop
      vertex 25.9876 40.9499 75
      vertex -48.5 0 75
      vertex 28.5076 39.2373 75
    endloop
  endfacet
  facet normal 0 0 1
    outer loop
      vertex 23.3651 42.5009 75
      vertex -48.5 0 75
      vertex 25.9876 40.9499 75
    endloop
  endfacet
  facet normal 0 0 1
    outer loop
      vertex 20.6503 43.8841 75
      vertex -48.5 0 75
      vertex 23.3651 42.5009 75
    endloop
  endfacet
  facet normal 0 0 1
    outer loop
      vertex 17.854 45.0942 75
      vertex -48.5 0 75
      vertex 20.6503 43.8841 75
    endloop
  endfacet
  facet normal 0 0 1
    outer loop
      vertex 14.9873 46.1262 75
      vertex -48.5 0 75
      vertex 17.854 45.0942 75
    endloop
  endfacet
  facet normal 0 0 1
    outer loop
      vertex 12.0615 46.9763 75
      vertex -48.5 0 75
      vertex 14.9873 46.1262 75
    endloop
  endfacet
  facet normal 0 0 1
    outer loop
      vertex 9.08799 47.6409 75
      vertex -48.5 0 75
      vertex 12.0615 46.9763 75
    endloop
  endfacet
  facet normal 0 0 1
    outer loop
      vertex 6.07866 48.1176 75
      vertex -48.5 0 75
      vertex 9.08799 47.6409 75
    endloop
  endfacet
  facet normal 0 0 1
    outer loop
      vertex 3.04534 48.4043 75
      vertex -48.5 0 75
      vertex 6.07866 48.1176 75
    endloop
  endfacet
  facet normal 0 0 1
    outer loop
      vertex 0 48.5 75
      vertex -48.5 0 75
      vertex 3.04534 48.4043 75
    endloop
  endfacet
  facet normal 0 0 1
    outer loop
      vertex -3.04534 48.4043 75
      vertex -48.5 0 75
      vertex 0 48.5 75
    endloop
  endfacet
  facet normal 0 0 1
    outer loop
      vertex -6.07866 48.1176 75
      vertex -48.5 0 75
      vertex -3.04534 48.4043 75
    endloop
  endfacet
  facet normal 0 0 1
    outer loop
      vertex -9.08799 47.6409 75
      vertex -48.5 0 75
      vertex -6.07866 48.1176 75
    endloop
  endfacet
  facet normal 0 0 1
    outer loop
      vertex -12.0615 46.9763 75
      vertex -48.5 0 75
      vertex -9.08799 47.6409 75
    endloop
  endfacet
  facet normal 0 0 1
    outer loop
      vertex -14.9873 46.1262 75
      vertex -48.5 0 75
      vertex -12.0615 46.9763 75
    endloop
  endfacet
  facet normal 0 0 1
    outer loop
      vertex -17.854 45.0942 75
      vertex -48.5 0 75
      vertex -14.9873 46.1262 75
    endloop
  endfacet
  facet normal 0 0 1
    outer loop
      vertex -20.6503 43.8841 75
      vertex -48.5 0 75
      vertex -17.854 45.0942 75
    endloop
  endfacet
  facet normal 0 0 1
    outer loop
      vertex -23.3651 42.5009 75
      vertex -48.5 0 75
      vertex -20.6503 43.8841 75
    endloop
  endfacet
  facet normal 0 0 1
    outer loop
      vertex -25.9876 40.9499 75
      vertex -48.5 0 75
      vertex -23.3651 42.5009 75
    endloop
  endfacet
  facet normal 0 0 1
    outer loop
      vertex -28.5076 39.2373 75
      vertex -48.5 0 75
      vertex -25.9876 40.9499 75
    endloop
  endfacet
  facet normal 0 0 1
    outer loop
      vertex -30.9151 37.3699 75
      vertex -48.5 0 75
      vertex -28.5076 39.2373 75
    endloop
  endfacet
  facet normal 0 0 1
    outer loop
      vertex -33.2005 35.355 75
      vertex -48.5 0 75
      vertex -30.9151 37.3699 75
    endloop
  endfacet
  facet normal 0 0 1
    outer loop
      vertex -35.355 33.2005 75
      vertex -48.5 0 75
      vertex -33.2005 35.355 75
    endloop
  endfacet
  facet normal 0 0 1
    outer loop
      vertex -37.3699 30.9151 75
      vertex -48.5 0 75
      vertex -35.355 33.2005 75
    endloop
  endfacet
  facet normal 0 0 1
    outer loop
      vertex -39.2373 28.5076 75
      vertex -48.5 0 75
      vertex -37.3699 30.9151 75
    endloop
  endfacet
  facet normal 0 0 1
    outer loop
      vertex -40.9499 25.9876 75
      vertex -48.5 0 75
      vertex -39.2373 28.5076 75
    endloop
  endfacet
  facet normal 0 0 1
    outer loop
      vertex -42.5009 23.3651 75
      vertex -48.5 0 75
      vertex -40.9499 25.9876 75
    endloop
  endfacet
  facet normal 0 0 1
    outer loop
      vertex -43.8841 20.6503 75
      vertex -48.5 0 75
      vertex -42.5009 23.3651 75
    endloop
  endfacet
  facet normal 0 0 1
    outer loop
      vertex -45.0942 17.854 75
      vertex -48.5 0 75
      vertex -43.8841 20.6503 75
    endloop
  endfacet
  facet normal 0 0 1
    outer loop
      vertex -46.1262 14.9873 75
      vertex -48.5 0 75
      vertex -45.0942 17.854 75
    endloop
  endfacet
  facet normal 0 0 1
    outer loop
      vertex -46.9763 12.0615 75
      vertex -48.5 0 75
      vertex -46.1262 14.9873 75
    endloop
  endfacet
  facet normal 0 0 1
    outer loop
      vertex -47.6409 9.08799 75
      vertex -48.5 0 75
      vertex -46.9763 12.0615 75
    endloop
  endfacet
  facet normal 0 0 1
    outer loop
      vertex -48.1176 6.07866 75
      vertex -48.5 0 75
      vertex -47.6409 9.08799 75
    endloop
  endfacet
  facet normal 0 0 1
    outer loop
      vertex -48.4043 3.04534 75
      vertex -48.5 0 75
      vertex -48.1176 6.07866 75
    endloop
  endfacet
endsolid OpenSCAD_Model
